<?xml version="1.0" encoding="UTF-8" standalone="no"?>
<!DOCTYPE svg PUBLIC "-//W3C//DTD SVG 1.1//EN"
 "http://www.w3.org/Graphics/SVG/1.1/DTD/svg11.dtd">
<!-- Generated by graphviz version 14.1.2 (20260126.1125)
 -->
<!-- Title: Graphical Class Hierarchy Pages: 1 -->
<svg width="359pt" height="230pt"
 viewBox="0.00 0.00 359.00 230.00" xmlns="http://www.w3.org/2000/svg" xmlns:xlink="http://www.w3.org/1999/xlink">
<g id="graph0" class="graph" transform="scale(1 1) rotate(0) translate(4 225.75)">
<title>Graphical Class Hierarchy</title>
<polygon fill="white" stroke="none" points="-4,4 -4,-225.75 355,-225.75 355,4 -4,4"/>
<!-- Node31 -->
<g id="node1" class="node">
<title>Node31</title>
<g id="a_node1"><a xlink:title=" ">
<polygon fill="white" stroke="#bfbfbf" points="0,-100.5 0,-121.25 82.75,-121.25 82.75,-100.5 0,-100.5"/>
<text xml:space="preserve" text-anchor="middle" x="41.38" y="-107.75" font-family="Helvetica,sans-Serif" font-size="10.00">runtime_error</text>
</a>
</g>
</g>
<!-- Node0 -->
<g id="node2" class="node">
<title>Node0</title>
<g id="a_node2"><a xlink:href="classupkie_1_1cpp_1_1exceptions_1_1UpkieError.html" target="_top" xlink:title="Base class for Upkie&#45;related exceptions.">
<polygon fill="white" stroke="black" points="118.75,-100.5 118.75,-121.25 186.5,-121.25 186.5,-100.5 118.75,-100.5"/>
<text xml:space="preserve" text-anchor="middle" x="152.62" y="-107.75" font-family="Helvetica,sans-Serif" font-size="10.00">UpkieError</text>
</a>
</g>
</g>
<!-- Node31&#45;&gt;Node0 -->
<g id="edge1" class="edge">
<title>Node31&#45;&gt;Node0</title>
<path fill="none" stroke="midnightblue" d="M94.45,-110.88C102.6,-110.88 110.83,-110.88 118.4,-110.88"/>
<polygon fill="midnightblue" stroke="midnightblue" points="94.57,-107.38 84.57,-110.88 94.57,-114.38 94.57,-107.38"/>
</g>
<!-- Node1 -->
<g id="node3" class="node">
<title>Node1</title>
<g id="a_node3"><a xlink:href="classupkie_1_1cpp_1_1exceptions_1_1ControllerError.html" target="_top" xlink:title="Exception thrown when a controller fails.">
<polygon fill="white" stroke="black" points="243.12,-200.5 243.12,-221.25 330.38,-221.25 330.38,-200.5 243.12,-200.5"/>
<text xml:space="preserve" text-anchor="middle" x="286.75" y="-207.75" font-family="Helvetica,sans-Serif" font-size="10.00">ControllerError</text>
</a>
</g>
</g>
<!-- Node0&#45;&gt;Node1 -->
<g id="edge2" class="edge">
<title>Node0&#45;&gt;Node1</title>
<path fill="none" stroke="midnightblue" d="M166.34,-131.23C178.63,-149.32 198.84,-175.27 222.5,-190.88 228.65,-194.93 235.68,-198.21 242.77,-200.85"/>
<polygon fill="midnightblue" stroke="midnightblue" points="169.28,-129.33 160.88,-122.88 163.42,-133.16 169.28,-129.33"/>
</g>
<!-- Node2 -->
<g id="node4" class="node">
<title>Node2</title>
<g id="a_node4"><a xlink:href="classupkie_1_1cpp_1_1exceptions_1_1FilterError.html" target="_top" xlink:title="Exception for filter errors.">
<polygon fill="white" stroke="black" points="254.75,-160.5 254.75,-181.25 318.75,-181.25 318.75,-160.5 254.75,-160.5"/>
<text xml:space="preserve" text-anchor="middle" x="286.75" y="-167.75" font-family="Helvetica,sans-Serif" font-size="10.00">FilterError</text>
</a>
</g>
</g>
<!-- Node0&#45;&gt;Node2 -->
<g id="edge3" class="edge">
<title>Node0&#45;&gt;Node2</title>
<path fill="none" stroke="midnightblue" d="M179.22,-127.55C191.89,-135.33 207.63,-144.3 222.5,-150.88 232.61,-155.34 244.03,-159.27 254.36,-162.44"/>
<polygon fill="midnightblue" stroke="midnightblue" points="181.4,-124.79 171.07,-122.44 177.68,-130.72 181.4,-124.79"/>
</g>
<!-- Node3 -->
<g id="node5" class="node">
<title>Node3</title>
<g id="a_node5"><a xlink:href="classupkie_1_1cpp_1_1exceptions_1_1ObserverError.html" target="_top" xlink:title="Exception thrown when an observer fails.">
<polygon fill="white" stroke="black" points="245,-120.5 245,-141.25 328.5,-141.25 328.5,-120.5 245,-120.5"/>
<text xml:space="preserve" text-anchor="middle" x="286.75" y="-127.75" font-family="Helvetica,sans-Serif" font-size="10.00">ObserverError</text>
</a>
</g>
</g>
<!-- Node0&#45;&gt;Node3 -->
<g id="edge4" class="edge">
<title>Node0&#45;&gt;Node3</title>
<path fill="none" stroke="midnightblue" d="M198.13,-117.61C213.24,-119.9 230.05,-122.44 244.86,-124.69"/>
<polygon fill="midnightblue" stroke="midnightblue" points="198.87,-114.18 188.46,-116.15 197.83,-121.11 198.87,-114.18"/>
</g>
<!-- Node4 -->
<g id="node6" class="node">
<title>Node4</title>
<g id="a_node6"><a xlink:href="classupkie_1_1cpp_1_1exceptions_1_1PositionCommandError.html" target="_top" xlink:title="Exception raised when an actuation command is incorrect.">
<polygon fill="white" stroke="black" points="222.5,-80.5 222.5,-101.25 351,-101.25 351,-80.5 222.5,-80.5"/>
<text xml:space="preserve" text-anchor="middle" x="286.75" y="-87.75" font-family="Helvetica,sans-Serif" font-size="10.00">PositionCommandError</text>
</a>
</g>
</g>
<!-- Node0&#45;&gt;Node4 -->
<g id="edge5" class="edge">
<title>Node0&#45;&gt;Node4</title>
<path fill="none" stroke="midnightblue" d="M198.21,-104.13C205.88,-102.97 213.98,-101.74 222.03,-100.52"/>
<polygon fill="midnightblue" stroke="midnightblue" points="197.83,-100.64 188.46,-105.6 198.87,-107.57 197.83,-100.64"/>
</g>
<!-- Node5 -->
<g id="node7" class="node">
<title>Node5</title>
<g id="a_node7"><a xlink:href="classupkie_1_1cpp_1_1exceptions_1_1ServoError.html" target="_top" xlink:title="Exception for filter errors.">
<polygon fill="white" stroke="black" points="253.25,-40.5 253.25,-61.25 320.25,-61.25 320.25,-40.5 253.25,-40.5"/>
<text xml:space="preserve" text-anchor="middle" x="286.75" y="-47.75" font-family="Helvetica,sans-Serif" font-size="10.00">ServoError</text>
</a>
</g>
</g>
<!-- Node0&#45;&gt;Node5 -->
<g id="edge6" class="edge">
<title>Node0&#45;&gt;Node5</title>
<path fill="none" stroke="midnightblue" d="M179.22,-94.2C191.89,-86.42 207.63,-77.45 222.5,-70.88 232.19,-66.59 243.09,-62.8 253.07,-59.71"/>
<polygon fill="midnightblue" stroke="midnightblue" points="177.68,-91.03 171.07,-99.31 181.4,-96.96 177.68,-91.03"/>
</g>
<!-- Node6 -->
<g id="node8" class="node">
<title>Node6</title>
<g id="a_node8"><a xlink:href="classupkie_1_1cpp_1_1exceptions_1_1TypeError.html" target="_top" xlink:title="Exception raised when a deserialized object does not have the right type.">
<polygon fill="white" stroke="black" points="255.88,-0.5 255.88,-21.25 317.62,-21.25 317.62,-0.5 255.88,-0.5"/>
<text xml:space="preserve" text-anchor="middle" x="286.75" y="-7.75" font-family="Helvetica,sans-Serif" font-size="10.00">TypeError</text>
</a>
</g>
</g>
<!-- Node0&#45;&gt;Node6 -->
<g id="edge7" class="edge">
<title>Node0&#45;&gt;Node6</title>
<path fill="none" stroke="midnightblue" d="M166.34,-90.52C178.63,-72.43 198.84,-46.48 222.5,-30.88 232.4,-24.34 244.57,-19.83 255.59,-16.77"/>
<polygon fill="midnightblue" stroke="midnightblue" points="163.42,-88.59 160.88,-98.87 169.28,-92.42 163.42,-88.59"/>
</g>
</g>
</svg>
