<?xml version="1.0" encoding="UTF-8" standalone="no"?>
<!DOCTYPE svg PUBLIC "-//W3C//DTD SVG 1.1//EN"
 "http://www.w3.org/Graphics/SVG/1.1/DTD/svg11.dtd">
<!-- Generated by graphviz version 13.1.2 (20250809.0930)
 -->
<!-- Title: Graphical Class Hierarchy Pages: 1 -->
<svg width="351pt" height="243pt"
 viewBox="0.00 0.00 351.00 243.00" xmlns="http://www.w3.org/2000/svg" xmlns:xlink="http://www.w3.org/1999/xlink">
<g id="graph0" class="graph" transform="scale(1 1) rotate(0) translate(4 238.75)">
<title>Graphical Class Hierarchy</title>
<!-- Node0 -->
<g id="node1" class="node">
<title>Node0</title>
<g id="a_node1"><a xlink:title=" ">
<polygon fill="#e0e0e0" stroke="#999999" points="35.12,-195.75 1.12,-195.75 1.12,-175 35.12,-175 35.12,-195.75"/>
<text xml:space="preserve" text-anchor="middle" x="18.12" y="-182.25" font-family="Helvetica,sans-Serif" font-size="10.00">Env</text>
</a>
</g>
</g>
<!-- Node1 -->
<g id="node2" class="node">
<title>Node1</title>
<g id="a_node2"><a xlink:href="classupkie_1_1envs_1_1testing_1_1ActionObserverEnv.html" target="_top" xlink:title="Test environment that returns the action as observation.">
<polygon fill="white" stroke="#666666" points="195.12,-234.75 86.12,-234.75 86.12,-214 195.12,-214 195.12,-234.75"/>
<text xml:space="preserve" text-anchor="middle" x="140.62" y="-221.25" font-family="Helvetica,sans-Serif" font-size="10.00">ActionObserverEnv</text>
</a>
</g>
</g>
<!-- Node0&#45;&gt;Node1 -->
<g id="edge1" class="edge">
<title>Node0&#45;&gt;Node1</title>
<path fill="none" stroke="#63b8ff" d="M46.02,-195.32C54.39,-198.32 63.67,-201.57 72.25,-204.38 81.76,-207.48 92.09,-210.65 101.74,-213.53"/>
<polygon fill="#63b8ff" stroke="#63b8ff" points="47.34,-192.07 36.74,-191.95 44.95,-198.65 47.34,-192.07"/>
</g>
<!-- Node2 -->
<g id="node3" class="node">
<title>Node2</title>
<g id="a_node3"><a xlink:href="classupkie_1_1envs_1_1testing_1_1ConstantObservationEnv.html" target="_top" xlink:title="Test environment that returns a constant observation.">
<polygon fill="white" stroke="#666666" points="209,-195.75 72.25,-195.75 72.25,-175 209,-175 209,-195.75"/>
<text xml:space="preserve" text-anchor="middle" x="140.62" y="-182.25" font-family="Helvetica,sans-Serif" font-size="10.00">ConstantObservationEnv</text>
</a>
</g>
</g>
<!-- Node0&#45;&gt;Node2 -->
<g id="edge2" class="edge">
<title>Node0&#45;&gt;Node2</title>
<path fill="none" stroke="#63b8ff" d="M46.81,-185.38C54.45,-185.38 63.1,-185.38 71.97,-185.38"/>
<polygon fill="#63b8ff" stroke="#63b8ff" points="46.89,-181.88 36.89,-185.38 46.89,-188.88 46.89,-181.88"/>
</g>
<!-- Node3 -->
<g id="node4" class="node">
<title>Node3</title>
<g id="a_node4"><a xlink:href="classupkie_1_1envs_1_1upkie__env_1_1UpkieEnv.html" target="_top" xlink:title="Base class with features shared by all Upkie environments.">
<polygon fill="white" stroke="#666666" points="171.88,-156.75 109.38,-156.75 109.38,-136 171.88,-136 171.88,-156.75"/>
<text xml:space="preserve" text-anchor="middle" x="140.62" y="-143.25" font-family="Helvetica,sans-Serif" font-size="10.00">UpkieEnv</text>
</a>
</g>
</g>
<!-- Node0&#45;&gt;Node3 -->
<g id="edge3" class="edge">
<title>Node0&#45;&gt;Node3</title>
<path fill="none" stroke="#63b8ff" d="M46.02,-175.43C54.39,-172.43 63.67,-169.18 72.25,-166.38 84.2,-162.47 97.43,-158.47 108.99,-155.08"/>
<polygon fill="#63b8ff" stroke="#63b8ff" points="44.95,-172.1 36.74,-178.8 47.34,-178.68 44.95,-172.1"/>
</g>
<!-- Node4 -->
<g id="node5" class="node">
<title>Node4</title>
<g id="a_node5"><a xlink:href="classupkie_1_1envs_1_1upkie__servos_1_1UpkieServos.html" target="_top" xlink:title="Upkie environment where actions command servomotors directly.">
<polygon fill="white" stroke="#666666" points="332.62,-176.75 255.12,-176.75 255.12,-156 332.62,-156 332.62,-176.75"/>
<text xml:space="preserve" text-anchor="middle" x="293.88" y="-163.25" font-family="Helvetica,sans-Serif" font-size="10.00">UpkieServos</text>
</a>
</g>
</g>
<!-- Node3&#45;&gt;Node4 -->
<g id="edge4" class="edge">
<title>Node3&#45;&gt;Node4</title>
<path fill="none" stroke="#63b8ff" d="M183.41,-151.9C205.74,-154.85 233.04,-158.46 254.79,-161.34"/>
<polygon fill="#63b8ff" stroke="#63b8ff" points="184.11,-148.46 173.73,-150.62 183.19,-155.4 184.11,-148.46"/>
</g>
<!-- Node5 -->
<g id="node6" class="node">
<title>Node5</title>
<g id="a_node6"><a xlink:title=" ">
<polygon fill="#e0e0e0" stroke="#999999" points="36.25,-137.75 0,-137.75 0,-117 36.25,-117 36.25,-137.75"/>
<text xml:space="preserve" text-anchor="middle" x="18.12" y="-124.25" font-family="Helvetica,sans-Serif" font-size="10.00">ABC</text>
</a>
</g>
</g>
<!-- Node5&#45;&gt;Node3 -->
<g id="edge10" class="edge">
<title>Node5&#45;&gt;Node3</title>
<path fill="none" stroke="#63b8ff" d="M47.86,-131.91C66.3,-134.81 90.22,-138.58 109.01,-141.55"/>
<polygon fill="#63b8ff" stroke="#63b8ff" points="48.56,-128.47 38.14,-130.37 47.47,-135.39 48.56,-128.47"/>
</g>
<!-- Node6 -->
<g id="node7" class="node">
<title>Node6</title>
<g id="a_node7"><a xlink:href="classupkie_1_1envs_1_1backends_1_1backend_1_1Backend.html" target="_top" xlink:title="Interface to a backend for Upkie environments.">
<polygon fill="white" stroke="#666666" points="169.25,-98.75 112,-98.75 112,-78 169.25,-78 169.25,-98.75"/>
<text xml:space="preserve" text-anchor="middle" x="140.62" y="-85.25" font-family="Helvetica,sans-Serif" font-size="10.00">Backend</text>
</a>
</g>
</g>
<!-- Node5&#45;&gt;Node6 -->
<g id="edge5" class="edge">
<title>Node5&#45;&gt;Node6</title>
<path fill="none" stroke="#63b8ff" d="M47.54,-118.18C66.95,-111.9 92.54,-103.62 111.81,-97.38"/>
<polygon fill="#63b8ff" stroke="#63b8ff" points="46.52,-114.83 38.09,-121.24 48.68,-121.49 46.52,-114.83"/>
</g>
<!-- Node7 -->
<g id="node8" class="node">
<title>Node7</title>
<g id="a_node8"><a xlink:href="classupkie_1_1envs_1_1backends_1_1genesis__backend_1_1GenesisBackend.html" target="_top" xlink:title="Backend using the Genesis physics simulator.">
<polygon fill="white" stroke="#666666" points="342,-137.75 245.75,-137.75 245.75,-117 342,-117 342,-137.75"/>
<text xml:space="preserve" text-anchor="middle" x="293.88" y="-124.25" font-family="Helvetica,sans-Serif" font-size="10.00">GenesisBackend</text>
</a>
</g>
</g>
<!-- Node6&#45;&gt;Node7 -->
<g id="edge6" class="edge">
<title>Node6&#45;&gt;Node7</title>
<path fill="none" stroke="#63b8ff" d="M180.76,-98.47C202.28,-104.02 228.99,-110.9 250.93,-116.56"/>
<polygon fill="#63b8ff" stroke="#63b8ff" points="181.74,-95.1 171.19,-96 179.99,-101.88 181.74,-95.1"/>
</g>
<!-- Node8 -->
<g id="node9" class="node">
<title>Node8</title>
<g id="a_node9"><a xlink:href="classupkie_1_1envs_1_1backends_1_1mock__backend_1_1MockBackend.html" target="_top" xlink:title="Backend that mimics perfect commands for testing.">
<polygon fill="white" stroke="#666666" points="335.62,-98.75 252.12,-98.75 252.12,-78 335.62,-78 335.62,-98.75"/>
<text xml:space="preserve" text-anchor="middle" x="293.88" y="-85.25" font-family="Helvetica,sans-Serif" font-size="10.00">MockBackend</text>
</a>
</g>
</g>
<!-- Node6&#45;&gt;Node8 -->
<g id="edge7" class="edge">
<title>Node6&#45;&gt;Node8</title>
<path fill="none" stroke="#63b8ff" d="M181.19,-88.38C202.92,-88.38 229.84,-88.38 251.8,-88.38"/>
<polygon fill="#63b8ff" stroke="#63b8ff" points="181.23,-84.88 171.23,-88.38 181.23,-91.88 181.23,-84.88"/>
</g>
<!-- Node9 -->
<g id="node10" class="node">
<title>Node9</title>
<g id="a_node10"><a xlink:href="classupkie_1_1envs_1_1backends_1_1pybullet__backend_1_1PyBulletBackend.html" target="_top" xlink:title="Backend using PyBullet physics simulation.">
<polygon fill="white" stroke="#666666" points="342.75,-59.75 245,-59.75 245,-39 342.75,-39 342.75,-59.75"/>
<text xml:space="preserve" text-anchor="middle" x="293.88" y="-46.25" font-family="Helvetica,sans-Serif" font-size="10.00">PyBulletBackend</text>
</a>
</g>
</g>
<!-- Node6&#45;&gt;Node9 -->
<g id="edge8" class="edge">
<title>Node6&#45;&gt;Node9</title>
<path fill="none" stroke="#63b8ff" d="M180.76,-78.28C202.28,-72.73 228.99,-65.85 250.93,-60.19"/>
<polygon fill="#63b8ff" stroke="#63b8ff" points="179.99,-74.87 171.19,-80.75 181.74,-81.65 179.99,-74.87"/>
</g>
<!-- Node10 -->
<g id="node11" class="node">
<title>Node10</title>
<g id="a_node11"><a xlink:href="classupkie_1_1envs_1_1backends_1_1spine__backend_1_1SpineBackend.html" target="_top" xlink:title="Backend connected to a simulation or real spine.">
<polygon fill="white" stroke="#666666" points="336,-20.75 251.75,-20.75 251.75,0 336,0 336,-20.75"/>
<text xml:space="preserve" text-anchor="middle" x="293.88" y="-7.25" font-family="Helvetica,sans-Serif" font-size="10.00">SpineBackend</text>
</a>
</g>
</g>
<!-- Node6&#45;&gt;Node10 -->
<g id="edge9" class="edge">
<title>Node6&#45;&gt;Node10</title>
<path fill="none" stroke="#63b8ff" d="M168.87,-71.95C189.45,-59.82 218.57,-43.26 245,-30.38 251.56,-27.18 258.76,-24 265.54,-21.15"/>
<polygon fill="#63b8ff" stroke="#63b8ff" points="167.33,-68.79 160.52,-76.91 170.91,-74.81 167.33,-68.79"/>
</g>
</g>
</svg>
