<?xml version="1.0" encoding="UTF-8" standalone="no"?>
<!DOCTYPE svg PUBLIC "-//W3C//DTD SVG 1.1//EN"
 "http://www.w3.org/Graphics/SVG/1.1/DTD/svg11.dtd">
<!-- Generated by graphviz version 14.1.2 (20260126.1125)
 -->
<!-- Title: Graphical Class Hierarchy Pages: 1 -->
<svg width="392pt" height="270pt"
 viewBox="0.00 0.00 392.00 270.00" xmlns="http://www.w3.org/2000/svg" xmlns:xlink="http://www.w3.org/1999/xlink">
<g id="graph0" class="graph" transform="scale(1 1) rotate(0) translate(4 265.75)">
<title>Graphical Class Hierarchy</title>
<polygon fill="white" stroke="none" points="-4,4 -4,-265.75 388,-265.75 388,4 -4,4"/>
<!-- Node81 -->
<g id="node1" class="node">
<title>Node81</title>
<g id="a_node1"><a xlink:title=" ">
<polygon fill="white" stroke="#bfbfbf" points="0,-120.5 0,-141.25 64,-141.25 64,-120.5 0,-120.5"/>
<text xml:space="preserve" text-anchor="middle" x="32" y="-127.75" font-family="Helvetica,sans-Serif" font-size="10.00">Exception</text>
</a>
</g>
</g>
<!-- Node82 -->
<g id="node2" class="node">
<title>Node82</title>
<g id="a_node2"><a xlink:href="classupkie_1_1exceptions_1_1UpkieException.html" target="_top" xlink:title="Base class for exceptions raised by Upkie agents.">
<polygon fill="white" stroke="black" points="100,-120.5 100,-141.25 192.5,-141.25 192.5,-120.5 100,-120.5"/>
<text xml:space="preserve" text-anchor="middle" x="146.25" y="-127.75" font-family="Helvetica,sans-Serif" font-size="10.00">UpkieException</text>
</a>
</g>
</g>
<!-- Node81&#45;&gt;Node82 -->
<g id="edge1" class="edge">
<title>Node81&#45;&gt;Node82</title>
<path fill="none" stroke="midnightblue" d="M75.56,-130.88C83.51,-130.88 91.85,-130.88 99.88,-130.88"/>
<polygon fill="midnightblue" stroke="midnightblue" points="75.78,-127.38 65.78,-130.88 75.78,-134.38 75.78,-127.38"/>
</g>
<!-- Node83 -->
<g id="node3" class="node">
<title>Node83</title>
<g id="a_node3"><a xlink:href="classupkie_1_1exceptions_1_1FallDetected.html" target="_top" xlink:title="Raised when a fall is detected.">
<polygon fill="white" stroke="black" points="267.88,-200.5 267.88,-221.25 344.62,-221.25 344.62,-200.5 267.88,-200.5"/>
<text xml:space="preserve" text-anchor="middle" x="306.25" y="-207.75" font-family="Helvetica,sans-Serif" font-size="10.00">FallDetected</text>
</a>
</g>
</g>
<!-- Node82&#45;&gt;Node83 -->
<g id="edge2" class="edge">
<title>Node82&#45;&gt;Node83</title>
<path fill="none" stroke="midnightblue" d="M167.01,-148.86C182.66,-162.22 205.62,-179.95 228.5,-190.88 240.68,-196.69 254.78,-200.98 267.55,-204.07"/>
<polygon fill="midnightblue" stroke="midnightblue" points="169.67,-146.53 159.84,-142.58 165.06,-151.8 169.67,-146.53"/>
</g>
<!-- Node84 -->
<g id="node4" class="node">
<title>Node84</title>
<g id="a_node4"><a xlink:href="classupkie_1_1exceptions_1_1MissingOptionalDependency.html" target="_top" xlink:title="Raised when an optional feature lacks a corresponding optional dependency.">
<polygon fill="white" stroke="black" points="228.5,-160.5 228.5,-181.25 384,-181.25 384,-160.5 228.5,-160.5"/>
<text xml:space="preserve" text-anchor="middle" x="306.25" y="-167.75" font-family="Helvetica,sans-Serif" font-size="10.00">MissingOptionalDependency</text>
</a>
</g>
</g>
<!-- Node82&#45;&gt;Node84 -->
<g id="edge3" class="edge">
<title>Node82&#45;&gt;Node84</title>
<path fill="none" stroke="midnightblue" d="M201.15,-144.52C221.16,-149.59 243.57,-155.26 262.46,-160.04"/>
<polygon fill="midnightblue" stroke="midnightblue" points="202.03,-141.13 191.47,-142.07 200.31,-147.92 202.03,-141.13"/>
</g>
<!-- Node85 -->
<g id="node5" class="node">
<title>Node85</title>
<g id="a_node5"><a xlink:href="classupkie_1_1exceptions_1_1ModelError.html" target="_top" xlink:title="Raised when something is wrong in the robot model.">
<polygon fill="white" stroke="black" points="271.62,-120.5 271.62,-141.25 340.88,-141.25 340.88,-120.5 271.62,-120.5"/>
<text xml:space="preserve" text-anchor="middle" x="306.25" y="-127.75" font-family="Helvetica,sans-Serif" font-size="10.00">ModelError</text>
</a>
</g>
</g>
<!-- Node82&#45;&gt;Node85 -->
<g id="edge4" class="edge">
<title>Node82&#45;&gt;Node85</title>
<path fill="none" stroke="midnightblue" d="M204.39,-130.88C226.78,-130.88 251.72,-130.88 271.2,-130.88"/>
<polygon fill="midnightblue" stroke="midnightblue" points="204.46,-127.38 194.46,-130.88 204.46,-134.38 204.46,-127.38"/>
</g>
<!-- Node86 -->
<g id="node6" class="node">
<title>Node86</title>
<g id="a_node6"><a xlink:href="classupkie_1_1exceptions_1_1PerformanceIssue.html" target="_top" xlink:title="Raised when a performance issue is detected.">
<polygon fill="white" stroke="black" points="254.38,-80.5 254.38,-101.25 358.12,-101.25 358.12,-80.5 254.38,-80.5"/>
<text xml:space="preserve" text-anchor="middle" x="306.25" y="-87.75" font-family="Helvetica,sans-Serif" font-size="10.00">PerformanceIssue</text>
</a>
</g>
</g>
<!-- Node82&#45;&gt;Node86 -->
<g id="edge5" class="edge">
<title>Node82&#45;&gt;Node86</title>
<path fill="none" stroke="midnightblue" d="M201.15,-117.23C221.16,-112.16 243.57,-106.49 262.46,-101.71"/>
<polygon fill="midnightblue" stroke="midnightblue" points="200.31,-113.83 191.47,-119.68 202.03,-120.62 200.31,-113.83"/>
</g>
<!-- Node87 -->
<g id="node7" class="node">
<title>Node87</title>
<g id="a_node7"><a xlink:href="classupkie_1_1exceptions_1_1SpineError.html" target="_top" xlink:title="Raised when the spine sets an error flag.">
<polygon fill="white" stroke="black" points="273.12,-240.5 273.12,-261.25 339.38,-261.25 339.38,-240.5 273.12,-240.5"/>
<text xml:space="preserve" text-anchor="middle" x="306.25" y="-247.75" font-family="Helvetica,sans-Serif" font-size="10.00">SpineError</text>
</a>
</g>
</g>
<!-- Node82&#45;&gt;Node87 -->
<g id="edge6" class="edge">
<title>Node82&#45;&gt;Node87</title>
<path fill="none" stroke="midnightblue" d="M158.38,-151.21C171.94,-174.06 196.99,-210.61 228.5,-230.88 241.7,-239.37 258.36,-244.26 272.79,-247.08"/>
<polygon fill="midnightblue" stroke="midnightblue" points="161.58,-149.75 153.57,-142.81 155.5,-153.23 161.58,-149.75"/>
</g>
<!-- Node30 -->
<g id="node8" class="node">
<title>Node30</title>
<g id="a_node8"><a xlink:href="classupkie_1_1exceptions_1_1UpkieRuntimeError.html" target="_top" xlink:title="Runtime error, for instance an invalid call to a library function.">
<polygon fill="white" stroke="black" points="251.75,-40.5 251.75,-61.25 360.75,-61.25 360.75,-40.5 251.75,-40.5"/>
<text xml:space="preserve" text-anchor="middle" x="306.25" y="-47.75" font-family="Helvetica,sans-Serif" font-size="10.00">UpkieRuntimeError</text>
</a>
</g>
</g>
<!-- Node82&#45;&gt;Node30 -->
<g id="edge7" class="edge">
<title>Node82&#45;&gt;Node30</title>
<path fill="none" stroke="midnightblue" d="M167.01,-112.89C182.66,-99.53 205.62,-81.8 228.5,-70.88 236.08,-67.26 244.4,-64.23 252.69,-61.71"/>
<polygon fill="midnightblue" stroke="midnightblue" points="165.06,-109.95 159.84,-119.17 169.67,-115.22 165.06,-109.95"/>
</g>
<!-- Node0 -->
<g id="node9" class="node">
<title>Node0</title>
<g id="a_node9"><a xlink:href="classupkie_1_1exceptions_1_1UpkieTimeoutError.html" target="_top" xlink:title="Raised when something times out, typically the spine not responding.">
<polygon fill="white" stroke="black" points="252.12,-0.5 252.12,-21.25 360.38,-21.25 360.38,-0.5 252.12,-0.5"/>
<text xml:space="preserve" text-anchor="middle" x="306.25" y="-7.75" font-family="Helvetica,sans-Serif" font-size="10.00">UpkieTimeoutError</text>
</a>
</g>
</g>
<!-- Node82&#45;&gt;Node0 -->
<g id="edge8" class="edge">
<title>Node82&#45;&gt;Node0</title>
<path fill="none" stroke="midnightblue" d="M162.28,-111.06C183.34,-83.5 220.04,-36.32 228.5,-30.88 235.56,-26.33 243.62,-22.82 251.79,-20.1"/>
<polygon fill="midnightblue" stroke="midnightblue" points="159.49,-108.94 156.22,-119.02 165.06,-113.18 159.49,-108.94"/>
</g>
<!-- Node29 -->
<g id="node10" class="node">
<title>Node29</title>
<g id="a_node10"><a xlink:title=" ">
<polygon fill="white" stroke="#bfbfbf" points="106,-40.5 106,-61.25 186.5,-61.25 186.5,-40.5 106,-40.5"/>
<text xml:space="preserve" text-anchor="middle" x="146.25" y="-47.75" font-family="Helvetica,sans-Serif" font-size="10.00">RuntimeError</text>
</a>
</g>
</g>
<!-- Node29&#45;&gt;Node30 -->
<g id="edge9" class="edge">
<title>Node29&#45;&gt;Node30</title>
<path fill="none" stroke="midnightblue" d="M198.13,-50.88C215.15,-50.88 234.17,-50.88 251.41,-50.88"/>
<polygon fill="midnightblue" stroke="midnightblue" points="198.23,-47.38 188.23,-50.88 198.23,-54.38 198.23,-47.38"/>
</g>
<!-- Node11 -->
<g id="node11" class="node">
<title>Node11</title>
<g id="a_node11"><a xlink:title=" ">
<polygon fill="white" stroke="#bfbfbf" points="106.38,-0.5 106.38,-21.25 186.12,-21.25 186.12,-0.5 106.38,-0.5"/>
<text xml:space="preserve" text-anchor="middle" x="146.25" y="-7.75" font-family="Helvetica,sans-Serif" font-size="10.00">TimeoutError</text>
</a>
</g>
</g>
<!-- Node11&#45;&gt;Node0 -->
<g id="edge10" class="edge">
<title>Node11&#45;&gt;Node0</title>
<path fill="none" stroke="midnightblue" d="M197.34,-10.88C214.67,-10.88 234.15,-10.88 251.74,-10.88"/>
<polygon fill="midnightblue" stroke="midnightblue" points="197.82,-7.38 187.82,-10.88 197.82,-14.38 197.82,-7.38"/>
</g>
</g>
</svg>
