<?xml version="1.0" encoding="UTF-8" standalone="no"?>
<!DOCTYPE svg PUBLIC "-//W3C//DTD SVG 1.1//EN"
 "http://www.w3.org/Graphics/SVG/1.1/DTD/svg11.dtd">
<!-- Generated by graphviz version 13.1.2 (20250809.0930)
 -->
<!-- Title: Graphical Class Hierarchy Pages: 1 -->
<svg width="210pt" height="146pt"
 viewBox="0.00 0.00 210.00 146.00" xmlns="http://www.w3.org/2000/svg" xmlns:xlink="http://www.w3.org/1999/xlink">
<g id="graph0" class="graph" transform="scale(1 1) rotate(0) translate(4 141.75)">
<title>Graphical Class Hierarchy</title>
<!-- Node0 -->
<g id="node1" class="node">
<title>Node0</title>
<g id="a_node1"><a xlink:title=" ">
<polygon fill="#e0e0e0" stroke="#999999" points="57.25,-78.75 0,-78.75 0,-58 57.25,-58 57.25,-78.75"/>
<text xml:space="preserve" text-anchor="middle" x="28.62" y="-65.25" font-family="Helvetica,sans-Serif" font-size="10.00">Wrapper</text>
</a>
</g>
</g>
<!-- Node1 -->
<g id="node2" class="node">
<title>Node1</title>
<g id="a_node2"><a xlink:href="classupkie_1_1envs_1_1upkie__pendulum_1_1UpkiePendulum.html" target="_top" xlink:title="Wrapper to make Upkie act as a wheeled inverted pendulum.">
<polygon fill="white" stroke="#666666" points="194,-137.75 100.75,-137.75 100.75,-117 194,-117 194,-137.75"/>
<text xml:space="preserve" text-anchor="middle" x="147.38" y="-124.25" font-family="Helvetica,sans-Serif" font-size="10.00">UpkiePendulum</text>
</a>
</g>
</g>
<!-- Node0&#45;&gt;Node1 -->
<g id="edge1" class="edge">
<title>Node0&#45;&gt;Node1</title>
<path fill="none" stroke="#63b8ff" d="M54.72,-85.28C66.18,-92.6 80.11,-100.95 93.25,-107.38 100.07,-110.71 107.59,-113.85 114.78,-116.61"/>
<polygon fill="#63b8ff" stroke="#63b8ff" points="56.92,-82.54 46.63,-80.01 53.1,-88.4 56.92,-82.54"/>
</g>
<!-- Node2 -->
<g id="node3" class="node">
<title>Node2</title>
<g id="a_node3"><a xlink:href="classupkie_1_1envs_1_1wrappers_1_1add__lag__to__action_1_1AddLagToAction.html" target="_top" xlink:title="Model lag by applying a low&#45;pass filter to the action of an environment.">
<polygon fill="white" stroke="#666666" points="194,-98.75 100.75,-98.75 100.75,-78 194,-78 194,-98.75"/>
<text xml:space="preserve" text-anchor="middle" x="147.38" y="-85.25" font-family="Helvetica,sans-Serif" font-size="10.00">AddLagToAction</text>
</a>
</g>
</g>
<!-- Node0&#45;&gt;Node2 -->
<g id="edge2" class="edge">
<title>Node0&#45;&gt;Node2</title>
<path fill="none" stroke="#63b8ff" d="M68.64,-75.06C78.82,-76.8 89.89,-78.7 100.4,-80.5"/>
<polygon fill="#63b8ff" stroke="#63b8ff" points="69.53,-71.66 59.08,-73.42 68.35,-78.56 69.53,-71.66"/>
</g>
<!-- Node3 -->
<g id="node4" class="node">
<title>Node3</title>
<g id="a_node4"><a xlink:href="classupkie_1_1envs_1_1wrappers_1_1differentiate__action_1_1DifferentiateAction.html" target="_top" xlink:title="Act on the derivative of the action.">
<polygon fill="white" stroke="#666666" points="201.5,-59.75 93.25,-59.75 93.25,-39 201.5,-39 201.5,-59.75"/>
<text xml:space="preserve" text-anchor="middle" x="147.38" y="-46.25" font-family="Helvetica,sans-Serif" font-size="10.00">DifferentiateAction</text>
</a>
</g>
</g>
<!-- Node0&#45;&gt;Node3 -->
<g id="edge3" class="edge">
<title>Node0&#45;&gt;Node3</title>
<path fill="none" stroke="#63b8ff" d="M68.88,-61.99C76.64,-60.72 84.89,-59.38 93.02,-58.06"/>
<polygon fill="#63b8ff" stroke="#63b8ff" points="68.39,-58.52 59.08,-63.58 69.52,-65.43 68.39,-58.52"/>
</g>
<!-- Node4 -->
<g id="node5" class="node">
<title>Node4</title>
<g id="a_node5"><a xlink:href="classupkie_1_1envs_1_1wrappers_1_1random__push_1_1RandomPush.html" target="_top" xlink:title="At each step, with a given probability, apply a random push to the robot.">
<polygon fill="white" stroke="#666666" points="187.25,-20.75 107.5,-20.75 107.5,0 187.25,0 187.25,-20.75"/>
<text xml:space="preserve" text-anchor="middle" x="147.38" y="-7.25" font-family="Helvetica,sans-Serif" font-size="10.00">RandomPush</text>
</a>
</g>
</g>
<!-- Node0&#45;&gt;Node4 -->
<g id="edge4" class="edge">
<title>Node0&#45;&gt;Node4</title>
<path fill="none" stroke="#63b8ff" d="M55.59,-51.44C66.9,-44.44 80.47,-36.54 93.25,-30.38 100.09,-27.08 107.62,-23.96 114.8,-21.2"/>
<polygon fill="#63b8ff" stroke="#63b8ff" points="53.79,-48.43 47.2,-56.73 57.53,-54.35 53.79,-48.43"/>
</g>
</g>
</svg>
