<?xml version="1.0" encoding="UTF-8" standalone="no"?>
<!DOCTYPE svg PUBLIC "-//W3C//DTD SVG 1.1//EN"
 "http://www.w3.org/Graphics/SVG/1.1/DTD/svg11.dtd">
<!-- Generated by graphviz version 13.1.2 (20250809.0930)
 -->
<!-- Title: Graphical Class Hierarchy Pages: 1 -->
<svg width="359pt" height="224pt"
 viewBox="0.00 0.00 359.00 224.00" xmlns="http://www.w3.org/2000/svg" xmlns:xlink="http://www.w3.org/1999/xlink">
<g id="graph0" class="graph" transform="scale(1 1) rotate(0) translate(4 219.75)">
<title>Graphical Class Hierarchy</title>
<!-- Node0 -->
<g id="node1" class="node">
<title>Node0</title>
<g id="a_node1"><a xlink:title=" ">
<polygon fill="#e0e0e0" stroke="#999999" points="82.75,-117.75 0,-117.75 0,-97 82.75,-97 82.75,-117.75"/>
<text xml:space="preserve" text-anchor="middle" x="41.38" y="-104.25" font-family="Helvetica,sans-Serif" font-size="10.00">runtime_error</text>
</a>
</g>
</g>
<!-- Node1 -->
<g id="node2" class="node">
<title>Node1</title>
<g id="a_node2"><a xlink:href="classupkie_1_1cpp_1_1exceptions_1_1UpkieError.html" target="_top" xlink:title="Base class for Upkie&#45;related exceptions.">
<polygon fill="white" stroke="#666666" points="186.5,-117.75 118.75,-117.75 118.75,-97 186.5,-97 186.5,-117.75"/>
<text xml:space="preserve" text-anchor="middle" x="152.62" y="-104.25" font-family="Helvetica,sans-Serif" font-size="10.00">UpkieError</text>
</a>
</g>
</g>
<!-- Node0&#45;&gt;Node1 -->
<g id="edge1" class="edge">
<title>Node0&#45;&gt;Node1</title>
<path fill="none" stroke="#63b8ff" d="M94.45,-107.38C102.6,-107.38 110.83,-107.38 118.4,-107.38"/>
<polygon fill="#63b8ff" stroke="#63b8ff" points="94.57,-103.88 84.57,-107.38 94.57,-110.88 94.57,-103.88"/>
</g>
<!-- Node2 -->
<g id="node3" class="node">
<title>Node2</title>
<g id="a_node3"><a xlink:href="classupkie_1_1cpp_1_1exceptions_1_1ControllerError.html" target="_top" xlink:title="Exception thrown when a controller fails.">
<polygon fill="white" stroke="#666666" points="330.38,-215.75 243.12,-215.75 243.12,-195 330.38,-195 330.38,-215.75"/>
<text xml:space="preserve" text-anchor="middle" x="286.75" y="-202.25" font-family="Helvetica,sans-Serif" font-size="10.00">ControllerError</text>
</a>
</g>
</g>
<!-- Node1&#45;&gt;Node2 -->
<g id="edge2" class="edge">
<title>Node1&#45;&gt;Node2</title>
<path fill="none" stroke="#63b8ff" d="M166.65,-127.49C179.04,-145.12 199.21,-170.22 222.5,-185.38 228.68,-189.39 235.72,-192.65 242.81,-195.28"/>
<polygon fill="#63b8ff" stroke="#63b8ff" points="169.65,-125.68 161.14,-119.36 163.86,-129.61 169.65,-125.68"/>
</g>
<!-- Node3 -->
<g id="node4" class="node">
<title>Node3</title>
<g id="a_node4"><a xlink:href="classupkie_1_1cpp_1_1exceptions_1_1FilterError.html" target="_top" xlink:title="Exception for filter errors.">
<polygon fill="white" stroke="#666666" points="318.75,-176.75 254.75,-176.75 254.75,-156 318.75,-156 318.75,-176.75"/>
<text xml:space="preserve" text-anchor="middle" x="286.75" y="-163.25" font-family="Helvetica,sans-Serif" font-size="10.00">FilterError</text>
</a>
</g>
</g>
<!-- Node1&#45;&gt;Node3 -->
<g id="edge3" class="edge">
<title>Node1&#45;&gt;Node3</title>
<path fill="none" stroke="#63b8ff" d="M180.16,-124.12C192.68,-131.58 208.03,-140.07 222.5,-146.38 232.64,-150.79 244.07,-154.71 254.39,-157.88"/>
<polygon fill="#63b8ff" stroke="#63b8ff" points="182.03,-121.17 171.67,-118.96 178.4,-127.15 182.03,-121.17"/>
</g>
<!-- Node4 -->
<g id="node5" class="node">
<title>Node4</title>
<g id="a_node5"><a xlink:href="classupkie_1_1cpp_1_1exceptions_1_1ObserverError.html" target="_top" xlink:title="Exception thrown when an observer fails.">
<polygon fill="white" stroke="#666666" points="328.5,-137.75 245,-137.75 245,-117 328.5,-117 328.5,-137.75"/>
<text xml:space="preserve" text-anchor="middle" x="286.75" y="-124.25" font-family="Helvetica,sans-Serif" font-size="10.00">ObserverError</text>
</a>
</g>
</g>
<!-- Node1&#45;&gt;Node4 -->
<g id="edge4" class="edge">
<title>Node1&#45;&gt;Node4</title>
<path fill="none" stroke="#63b8ff" d="M198.13,-114.11C213.24,-116.4 230.05,-118.94 244.86,-121.19"/>
<polygon fill="#63b8ff" stroke="#63b8ff" points="198.87,-110.68 188.46,-112.65 197.83,-117.61 198.87,-110.68"/>
</g>
<!-- Node5 -->
<g id="node6" class="node">
<title>Node5</title>
<g id="a_node6"><a xlink:href="classupkie_1_1cpp_1_1exceptions_1_1PositionCommandError.html" target="_top" xlink:title="Exception raised when an actuation command is incorrect.">
<polygon fill="white" stroke="#666666" points="351,-98.75 222.5,-98.75 222.5,-78 351,-78 351,-98.75"/>
<text xml:space="preserve" text-anchor="middle" x="286.75" y="-85.25" font-family="Helvetica,sans-Serif" font-size="10.00">PositionCommandError</text>
</a>
</g>
</g>
<!-- Node1&#45;&gt;Node5 -->
<g id="edge5" class="edge">
<title>Node1&#45;&gt;Node5</title>
<path fill="none" stroke="#63b8ff" d="M198.21,-100.96C205.88,-99.86 213.98,-98.7 222.03,-97.54"/>
<polygon fill="#63b8ff" stroke="#63b8ff" points="197.86,-97.48 188.46,-102.37 198.86,-104.41 197.86,-97.48"/>
</g>
<!-- Node6 -->
<g id="node7" class="node">
<title>Node6</title>
<g id="a_node7"><a xlink:href="classupkie_1_1cpp_1_1exceptions_1_1ServoError.html" target="_top" xlink:title="Exception for filter errors.">
<polygon fill="white" stroke="#666666" points="320.25,-59.75 253.25,-59.75 253.25,-39 320.25,-39 320.25,-59.75"/>
<text xml:space="preserve" text-anchor="middle" x="286.75" y="-46.25" font-family="Helvetica,sans-Serif" font-size="10.00">ServoError</text>
</a>
</g>
</g>
<!-- Node1&#45;&gt;Node6 -->
<g id="edge6" class="edge">
<title>Node1&#45;&gt;Node6</title>
<path fill="none" stroke="#63b8ff" d="M180.72,-90.8C193.16,-83.62 208.28,-75.47 222.5,-69.38 232.13,-65.24 242.91,-61.52 252.8,-58.44"/>
<polygon fill="#63b8ff" stroke="#63b8ff" points="179.12,-87.68 172.28,-95.77 182.67,-93.71 179.12,-87.68"/>
</g>
<!-- Node7 -->
<g id="node8" class="node">
<title>Node7</title>
<g id="a_node8"><a xlink:href="classupkie_1_1cpp_1_1exceptions_1_1TypeError.html" target="_top" xlink:title="Exception raised when a deserialized object does not have the right type.">
<polygon fill="white" stroke="#666666" points="317.62,-20.75 255.88,-20.75 255.88,0 317.62,0 317.62,-20.75"/>
<text xml:space="preserve" text-anchor="middle" x="286.75" y="-7.25" font-family="Helvetica,sans-Serif" font-size="10.00">TypeError</text>
</a>
</g>
</g>
<!-- Node1&#45;&gt;Node7 -->
<g id="edge7" class="edge">
<title>Node1&#45;&gt;Node7</title>
<path fill="none" stroke="#63b8ff" d="M166.91,-87.24C179.36,-69.86 199.45,-45.27 222.5,-30.38 232.46,-23.94 244.65,-19.44 255.65,-16.37"/>
<polygon fill="#63b8ff" stroke="#63b8ff" points="164.17,-85.05 161.37,-95.26 169.93,-89.02 164.17,-85.05"/>
</g>
</g>
</svg>
