<?xml version="1.0" encoding="UTF-8" standalone="no"?>
<!DOCTYPE svg PUBLIC "-//W3C//DTD SVG 1.1//EN"
 "http://www.w3.org/Graphics/SVG/1.1/DTD/svg11.dtd">
<!-- Generated by graphviz version 14.1.2 (20260126.1125)
 -->
<!-- Title: Graphical Class Hierarchy Pages: 1 -->
<svg width="210pt" height="230pt"
 viewBox="0.00 0.00 210.00 230.00" xmlns="http://www.w3.org/2000/svg" xmlns:xlink="http://www.w3.org/1999/xlink">
<g id="graph0" class="graph" transform="scale(1 1) rotate(0) translate(4 225.75)">
<title>Graphical Class Hierarchy</title>
<polygon fill="white" stroke="none" points="-4,4 -4,-225.75 205.5,-225.75 205.5,4 -4,4"/>
<!-- Node3 -->
<g id="node1" class="node">
<title>Node3</title>
<g id="a_node1"><a xlink:title=" ">
<polygon fill="white" stroke="#bfbfbf" points="0,-100.5 0,-121.25 57.25,-121.25 57.25,-100.5 0,-100.5"/>
<text xml:space="preserve" text-anchor="middle" x="28.62" y="-107.75" font-family="Helvetica,sans-Serif" font-size="10.00">Wrapper</text>
</a>
</g>
</g>
<!-- Node0 -->
<g id="node2" class="node">
<title>Node0</title>
<g id="a_node2"><a xlink:href="classupkie_1_1envs_1_1upkie__base__velocity_1_1UpkieBaseVelocity.html" target="_top" xlink:title="Wrapper where the Upkie balances itself and the action is directly a base velocity.">
<polygon fill="white" stroke="black" points="93.62,-200.5 93.62,-221.25 201.12,-221.25 201.12,-200.5 93.62,-200.5"/>
<text xml:space="preserve" text-anchor="middle" x="147.38" y="-207.75" font-family="Helvetica,sans-Serif" font-size="10.00">UpkieBaseVelocity</text>
</a>
</g>
</g>
<!-- Node3&#45;&gt;Node0 -->
<g id="edge1" class="edge">
<title>Node3&#45;&gt;Node0</title>
<path fill="none" stroke="midnightblue" d="M41.56,-131.51C52.84,-149.41 71.29,-174.88 93.25,-190.88 98.19,-194.47 103.85,-197.5 109.6,-200.02"/>
<polygon fill="midnightblue" stroke="midnightblue" points="44.59,-129.77 36.41,-123.03 38.61,-133.4 44.59,-129.77"/>
</g>
<!-- Node5 -->
<g id="node3" class="node">
<title>Node5</title>
<g id="a_node3"><a xlink:href="classupkie_1_1envs_1_1upkie__gyropod_1_1UpkieGyropod.html" target="_top" xlink:title="Wrapper to make Upkie act as a wheeled inverted pendulum with yaw control.">
<polygon fill="white" stroke="black" points="104.5,-160.5 104.5,-181.25 190.25,-181.25 190.25,-160.5 104.5,-160.5"/>
<text xml:space="preserve" text-anchor="middle" x="147.38" y="-167.75" font-family="Helvetica,sans-Serif" font-size="10.00">UpkieGyropod</text>
</a>
</g>
</g>
<!-- Node3&#45;&gt;Node5 -->
<g id="edge2" class="edge">
<title>Node3&#45;&gt;Node5</title>
<path fill="none" stroke="midnightblue" d="M54.2,-127.95C65.74,-135.54 79.87,-144.24 93.25,-150.88 99.96,-154.2 107.37,-157.32 114.47,-160.05"/>
<polygon fill="midnightblue" stroke="midnightblue" points="56.32,-125.15 46.06,-122.49 52.41,-130.97 56.32,-125.15"/>
</g>
<!-- Node6 -->
<g id="node4" class="node">
<title>Node6</title>
<g id="a_node4"><a xlink:href="classupkie_1_1envs_1_1upkie__pendulum_1_1UpkiePendulum.html" target="_top" xlink:title="Backward&#45;compatible wrapper around UpkieGyropod with 4D obs / 1D action.">
<polygon fill="white" stroke="black" points="100.75,-120.5 100.75,-141.25 194,-141.25 194,-120.5 100.75,-120.5"/>
<text xml:space="preserve" text-anchor="middle" x="147.38" y="-127.75" font-family="Helvetica,sans-Serif" font-size="10.00">UpkiePendulum</text>
</a>
</g>
</g>
<!-- Node3&#45;&gt;Node6 -->
<g id="edge3" class="edge">
<title>Node3&#45;&gt;Node6</title>
<path fill="none" stroke="midnightblue" d="M68.64,-117.56C78.82,-119.3 89.89,-121.2 100.4,-123"/>
<polygon fill="midnightblue" stroke="midnightblue" points="69.53,-114.16 59.08,-115.92 68.35,-121.06 69.53,-114.16"/>
</g>
<!-- Node7 -->
<g id="node5" class="node">
<title>Node7</title>
<g id="a_node5"><a xlink:href="classupkie_1_1envs_1_1wrappers_1_1add__lag__to__action_1_1AddLagToAction.html" target="_top" xlink:title="Model lag by applying a low&#45;pass filter to the action of an environment.">
<polygon fill="white" stroke="black" points="100.75,-80.5 100.75,-101.25 194,-101.25 194,-80.5 100.75,-80.5"/>
<text xml:space="preserve" text-anchor="middle" x="147.38" y="-87.75" font-family="Helvetica,sans-Serif" font-size="10.00">AddLagToAction</text>
</a>
</g>
</g>
<!-- Node3&#45;&gt;Node7 -->
<g id="edge4" class="edge">
<title>Node3&#45;&gt;Node7</title>
<path fill="none" stroke="midnightblue" d="M68.64,-104.19C78.82,-102.45 89.89,-100.55 100.4,-98.75"/>
<polygon fill="midnightblue" stroke="midnightblue" points="68.35,-100.69 59.08,-105.83 69.53,-107.59 68.35,-100.69"/>
</g>
<!-- Node8 -->
<g id="node6" class="node">
<title>Node8</title>
<g id="a_node6"><a xlink:href="classupkie_1_1envs_1_1wrappers_1_1differentiate__action_1_1DifferentiateAction.html" target="_top" xlink:title="Act on the derivative of the action.">
<polygon fill="white" stroke="black" points="93.25,-40.5 93.25,-61.25 201.5,-61.25 201.5,-40.5 93.25,-40.5"/>
<text xml:space="preserve" text-anchor="middle" x="147.38" y="-47.75" font-family="Helvetica,sans-Serif" font-size="10.00">DifferentiateAction</text>
</a>
</g>
</g>
<!-- Node3&#45;&gt;Node8 -->
<g id="edge5" class="edge">
<title>Node3&#45;&gt;Node8</title>
<path fill="none" stroke="midnightblue" d="M54.2,-93.8C65.74,-86.21 79.87,-77.51 93.25,-70.88 99.96,-67.55 107.37,-64.43 114.47,-61.7"/>
<polygon fill="midnightblue" stroke="midnightblue" points="52.41,-90.78 46.06,-99.26 56.32,-96.6 52.41,-90.78"/>
</g>
<!-- Node9 -->
<g id="node7" class="node">
<title>Node9</title>
<g id="a_node7"><a xlink:href="classupkie_1_1envs_1_1wrappers_1_1random__push_1_1RandomPush.html" target="_top" xlink:title="At each step, with a given probability, apply a random push to the robot.">
<polygon fill="white" stroke="black" points="107.5,-0.5 107.5,-21.25 187.25,-21.25 187.25,-0.5 107.5,-0.5"/>
<text xml:space="preserve" text-anchor="middle" x="147.38" y="-7.75" font-family="Helvetica,sans-Serif" font-size="10.00">RandomPush</text>
</a>
</g>
</g>
<!-- Node3&#45;&gt;Node9 -->
<g id="edge6" class="edge">
<title>Node3&#45;&gt;Node9</title>
<path fill="none" stroke="midnightblue" d="M41.56,-90.24C52.84,-72.34 71.29,-46.87 93.25,-30.88 98.19,-27.28 103.85,-24.25 109.6,-21.73"/>
<polygon fill="midnightblue" stroke="midnightblue" points="38.61,-88.35 36.41,-98.72 44.59,-91.98 38.61,-88.35"/>
</g>
</g>
</svg>
