<?xml version="1.0" encoding="UTF-8" standalone="no"?>
<!DOCTYPE svg PUBLIC "-//W3C//DTD SVG 1.1//EN"
 "http://www.w3.org/Graphics/SVG/1.1/DTD/svg11.dtd">
<!-- Generated by graphviz version 14.1.2 (20260126.1125)
 -->
<!-- Title: Graphical Class Hierarchy Pages: 1 -->
<svg width="351pt" height="250pt"
 viewBox="0.00 0.00 351.00 250.00" xmlns="http://www.w3.org/2000/svg" xmlns:xlink="http://www.w3.org/1999/xlink">
<g id="graph0" class="graph" transform="scale(1 1) rotate(0) translate(4 245.75)">
<title>Graphical Class Hierarchy</title>
<polygon fill="white" stroke="none" points="-4,4 -4,-245.75 346.75,-245.75 346.75,4 -4,4"/>
<!-- Node102 -->
<g id="node1" class="node">
<title>Node102</title>
<g id="a_node1"><a xlink:title=" ">
<polygon fill="white" stroke="#bfbfbf" points="0,-110.5 0,-131.25 36.25,-131.25 36.25,-110.5 0,-110.5"/>
<text xml:space="preserve" text-anchor="middle" x="18.12" y="-117.75" font-family="Helvetica,sans-Serif" font-size="10.00">ABC</text>
</a>
</g>
</g>
<!-- Node103 -->
<g id="node2" class="node">
<title>Node103</title>
<g id="a_node2"><a xlink:href="classupkie_1_1envs_1_1backends_1_1backend_1_1Backend.html" target="_top" xlink:title="Interface to a backend for Upkie environments.">
<polygon fill="white" stroke="black" points="112,-140.5 112,-161.25 169.25,-161.25 169.25,-140.5 112,-140.5"/>
<text xml:space="preserve" text-anchor="middle" x="140.62" y="-147.75" font-family="Helvetica,sans-Serif" font-size="10.00">Backend</text>
</a>
</g>
</g>
<!-- Node102&#45;&gt;Node103 -->
<g id="edge1" class="edge">
<title>Node102&#45;&gt;Node103</title>
<path fill="none" stroke="midnightblue" d="M47.82,-128.02C67.19,-132.84 92.63,-139.17 111.81,-143.95"/>
<polygon fill="midnightblue" stroke="midnightblue" points="48.66,-124.62 38.12,-125.6 46.97,-131.42 48.66,-124.62"/>
</g>
<!-- Node94 -->
<g id="node7" class="node">
<title>Node94</title>
<g id="a_node7"><a xlink:href="classupkie_1_1envs_1_1upkie__env_1_1UpkieEnv.html" target="_top" xlink:title="Base class with features shared by all Upkie environments.">
<polygon fill="white" stroke="black" points="109.38,-80.5 109.38,-101.25 171.88,-101.25 171.88,-80.5 109.38,-80.5"/>
<text xml:space="preserve" text-anchor="middle" x="140.62" y="-87.75" font-family="Helvetica,sans-Serif" font-size="10.00">UpkieEnv</text>
</a>
</g>
</g>
<!-- Node102&#45;&gt;Node94 -->
<g id="edge6" class="edge">
<title>Node102&#45;&gt;Node94</title>
<path fill="none" stroke="midnightblue" d="M47.6,-113.79C66.07,-109.19 90.13,-103.2 109.01,-98.5"/>
<polygon fill="midnightblue" stroke="midnightblue" points="46.97,-110.33 38.12,-116.15 48.66,-117.13 46.97,-110.33"/>
</g>
<!-- Node104 -->
<g id="node3" class="node">
<title>Node104</title>
<g id="a_node3"><a xlink:href="classupkie_1_1envs_1_1backends_1_1genesis__backend_1_1GenesisBackend.html" target="_top" xlink:title="Backend using the Genesis physics simulator.">
<polygon fill="white" stroke="black" points="245.75,-220.5 245.75,-241.25 342,-241.25 342,-220.5 245.75,-220.5"/>
<text xml:space="preserve" text-anchor="middle" x="293.88" y="-227.75" font-family="Helvetica,sans-Serif" font-size="10.00">GenesisBackend</text>
</a>
</g>
</g>
<!-- Node103&#45;&gt;Node104 -->
<g id="edge2" class="edge">
<title>Node103&#45;&gt;Node104</title>
<path fill="none" stroke="midnightblue" d="M168.06,-167.5C188.64,-180.13 218.13,-197.53 245,-210.88 251.45,-214.08 258.55,-217.23 265.26,-220.06"/>
<polygon fill="midnightblue" stroke="midnightblue" points="170.08,-164.63 159.73,-162.35 166.39,-170.59 170.08,-164.63"/>
</g>
<!-- Node105 -->
<g id="node4" class="node">
<title>Node105</title>
<g id="a_node4"><a xlink:href="classupkie_1_1envs_1_1backends_1_1mock__backend_1_1MockBackend.html" target="_top" xlink:title="Backend that mimics perfect commands for testing.">
<polygon fill="white" stroke="black" points="252.12,-180.5 252.12,-201.25 335.62,-201.25 335.62,-180.5 252.12,-180.5"/>
<text xml:space="preserve" text-anchor="middle" x="293.88" y="-187.75" font-family="Helvetica,sans-Serif" font-size="10.00">MockBackend</text>
</a>
</g>
</g>
<!-- Node103&#45;&gt;Node105 -->
<g id="edge3" class="edge">
<title>Node103&#45;&gt;Node105</title>
<path fill="none" stroke="midnightblue" d="M180.59,-161.18C202.43,-166.95 229.64,-174.15 251.8,-180.01"/>
<polygon fill="midnightblue" stroke="midnightblue" points="181.75,-157.87 171.18,-158.69 179.96,-164.63 181.75,-157.87"/>
</g>
<!-- Node106 -->
<g id="node5" class="node">
<title>Node106</title>
<g id="a_node5"><a xlink:href="classupkie_1_1envs_1_1backends_1_1pybullet__backend_1_1PyBulletBackend.html" target="_top" xlink:title="Backend using PyBullet physics simulation.">
<polygon fill="white" stroke="black" points="245,-140.5 245,-161.25 342.75,-161.25 342.75,-140.5 245,-140.5"/>
<text xml:space="preserve" text-anchor="middle" x="293.88" y="-147.75" font-family="Helvetica,sans-Serif" font-size="10.00">PyBulletBackend</text>
</a>
</g>
</g>
<!-- Node103&#45;&gt;Node106 -->
<g id="edge4" class="edge">
<title>Node103&#45;&gt;Node106</title>
<path fill="none" stroke="midnightblue" d="M181.22,-150.88C200.66,-150.88 224.24,-150.88 244.71,-150.88"/>
<polygon fill="midnightblue" stroke="midnightblue" points="181.23,-147.38 171.23,-150.88 181.23,-154.38 181.23,-147.38"/>
</g>
<!-- Node107 -->
<g id="node6" class="node">
<title>Node107</title>
<g id="a_node6"><a xlink:href="classupkie_1_1envs_1_1backends_1_1spine__backend_1_1SpineBackend.html" target="_top" xlink:title="Backend connected to a simulation or real spine.">
<polygon fill="white" stroke="black" points="251.75,-100.5 251.75,-121.25 336,-121.25 336,-100.5 251.75,-100.5"/>
<text xml:space="preserve" text-anchor="middle" x="293.88" y="-107.75" font-family="Helvetica,sans-Serif" font-size="10.00">SpineBackend</text>
</a>
</g>
</g>
<!-- Node103&#45;&gt;Node107 -->
<g id="edge5" class="edge">
<title>Node103&#45;&gt;Node107</title>
<path fill="none" stroke="midnightblue" d="M180.59,-140.57C202.43,-134.8 229.64,-127.6 251.8,-121.74"/>
<polygon fill="midnightblue" stroke="midnightblue" points="179.96,-137.12 171.18,-143.06 181.75,-143.88 179.96,-137.12"/>
</g>
<!-- Node95 -->
<g id="node8" class="node">
<title>Node95</title>
<g id="a_node8"><a xlink:href="classupkie_1_1envs_1_1upkie__servos_1_1UpkieServos.html" target="_top" xlink:title="Upkie environment where actions command servomotors directly.">
<polygon fill="white" stroke="black" points="255.12,-60.5 255.12,-81.25 332.62,-81.25 332.62,-60.5 255.12,-60.5"/>
<text xml:space="preserve" text-anchor="middle" x="293.88" y="-67.75" font-family="Helvetica,sans-Serif" font-size="10.00">UpkieServos</text>
</a>
</g>
</g>
<!-- Node94&#45;&gt;Node95 -->
<g id="edge7" class="edge">
<title>Node94&#45;&gt;Node95</title>
<path fill="none" stroke="midnightblue" d="M183.41,-85.35C205.74,-82.4 233.04,-78.79 254.79,-75.91"/>
<polygon fill="midnightblue" stroke="midnightblue" points="183.19,-81.85 173.73,-86.63 184.11,-88.79 183.19,-81.85"/>
</g>
<!-- Node91 -->
<g id="node9" class="node">
<title>Node91</title>
<g id="a_node9"><a xlink:title=" ">
<polygon fill="white" stroke="#bfbfbf" points="1.12,-40.5 1.12,-61.25 35.12,-61.25 35.12,-40.5 1.12,-40.5"/>
<text xml:space="preserve" text-anchor="middle" x="18.12" y="-47.75" font-family="Helvetica,sans-Serif" font-size="10.00">Env</text>
</a>
</g>
</g>
<!-- Node91&#45;&gt;Node94 -->
<g id="edge10" class="edge">
<title>Node91&#45;&gt;Node94</title>
<path fill="none" stroke="midnightblue" d="M45.98,-61.41C54.35,-64.58 63.64,-67.98 72.25,-70.88 84.16,-74.88 97.4,-78.9 108.96,-82.27"/>
<polygon fill="midnightblue" stroke="midnightblue" points="47.3,-58.17 36.71,-57.85 44.79,-64.7 47.3,-58.17"/>
</g>
<!-- Node0 -->
<g id="node10" class="node">
<title>Node0</title>
<g id="a_node10"><a xlink:href="classupkie_1_1envs_1_1testing_1_1ActionObserverEnv.html" target="_top" xlink:title="Test environment that returns the action as observation.">
<polygon fill="white" stroke="black" points="86.12,-40.5 86.12,-61.25 195.12,-61.25 195.12,-40.5 86.12,-40.5"/>
<text xml:space="preserve" text-anchor="middle" x="140.62" y="-47.75" font-family="Helvetica,sans-Serif" font-size="10.00">ActionObserverEnv</text>
</a>
</g>
</g>
<!-- Node91&#45;&gt;Node0 -->
<g id="edge8" class="edge">
<title>Node91&#45;&gt;Node0</title>
<path fill="none" stroke="midnightblue" d="M46.55,-50.88C58.21,-50.88 72.22,-50.88 85.79,-50.88"/>
<polygon fill="midnightblue" stroke="midnightblue" points="46.89,-47.38 36.89,-50.88 46.89,-54.38 46.89,-47.38"/>
</g>
<!-- Node93 -->
<g id="node11" class="node">
<title>Node93</title>
<g id="a_node11"><a xlink:href="classupkie_1_1envs_1_1testing_1_1ConstantObservationEnv.html" target="_top" xlink:title="Test environment that returns a constant observation.">
<polygon fill="white" stroke="black" points="72.25,-0.5 72.25,-21.25 209,-21.25 209,-0.5 72.25,-0.5"/>
<text xml:space="preserve" text-anchor="middle" x="140.62" y="-7.75" font-family="Helvetica,sans-Serif" font-size="10.00">ConstantObservationEnv</text>
</a>
</g>
</g>
<!-- Node91&#45;&gt;Node93 -->
<g id="edge9" class="edge">
<title>Node91&#45;&gt;Node93</title>
<path fill="none" stroke="midnightblue" d="M45.98,-40.34C54.35,-37.17 63.64,-33.77 72.25,-30.88 81.62,-27.73 91.8,-24.57 101.35,-21.72"/>
<polygon fill="midnightblue" stroke="midnightblue" points="44.79,-37.05 36.71,-43.9 47.3,-43.58 44.79,-37.05"/>
</g>
</g>
</svg>
