<?xml version="1.0" encoding="UTF-8" standalone="no"?>
<!DOCTYPE svg PUBLIC "-//W3C//DTD SVG 1.1//EN"
 "http://www.w3.org/Graphics/SVG/1.1/DTD/svg11.dtd">
<!-- Generated by graphviz version 13.1.2 (20250809.0930)
 -->
<!-- Title: Graphical Class Hierarchy Pages: 1 -->
<svg width="195pt" height="107pt"
 viewBox="0.00 0.00 195.00 107.00" xmlns="http://www.w3.org/2000/svg" xmlns:xlink="http://www.w3.org/1999/xlink">
<g id="graph0" class="graph" transform="scale(1 1) rotate(0) translate(4 102.75)">
<title>Graphical Class Hierarchy</title>
<!-- Node0 -->
<g id="node1" class="node">
<title>Node0</title>
<g id="a_node1"><a xlink:href="classupkie_1_1cpp_1_1interfaces_1_1Interface.html" target="_top" xlink:title="Base class for actuation interfaces.">
<polygon fill="white" stroke="#666666" points="59.5,-59.75 0,-59.75 0,-39 59.5,-39 59.5,-59.75"/>
<text xml:space="preserve" text-anchor="middle" x="29.75" y="-46.25" font-family="Helvetica,sans-Serif" font-size="10.00">Interface</text>
</a>
</g>
</g>
<!-- Node1 -->
<g id="node2" class="node">
<title>Node1</title>
<g id="a_node2"><a xlink:href="classupkie_1_1cpp_1_1interfaces_1_1BulletInterface.html" target="_top" xlink:title="Actuation interface for the Bullet simulator.">
<polygon fill="white" stroke="#666666" points="185.38,-98.75 97.38,-98.75 97.38,-78 185.38,-78 185.38,-98.75"/>
<text xml:space="preserve" text-anchor="middle" x="141.38" y="-85.25" font-family="Helvetica,sans-Serif" font-size="10.00">BulletInterface</text>
</a>
</g>
</g>
<!-- Node0&#45;&gt;Node1 -->
<g id="edge1" class="edge">
<title>Node0&#45;&gt;Node1</title>
<path fill="none" stroke="#63b8ff" d="M70.43,-63.49C83.48,-68.13 97.76,-73.21 110,-77.57"/>
<polygon fill="#63b8ff" stroke="#63b8ff" points="71.86,-60.29 61.27,-60.23 69.51,-66.88 71.86,-60.29"/>
</g>
<!-- Node2 -->
<g id="node3" class="node">
<title>Node2</title>
<g id="a_node3"><a xlink:href="classupkie_1_1cpp_1_1interfaces_1_1MockInterface.html" target="_top" xlink:title="Interface whose internal state perfectly tracks commands.">
<polygon fill="white" stroke="#666666" points="184.25,-59.75 98.5,-59.75 98.5,-39 184.25,-39 184.25,-59.75"/>
<text xml:space="preserve" text-anchor="middle" x="141.38" y="-46.25" font-family="Helvetica,sans-Serif" font-size="10.00">MockInterface</text>
</a>
</g>
</g>
<!-- Node0&#45;&gt;Node2 -->
<g id="edge2" class="edge">
<title>Node0&#45;&gt;Node2</title>
<path fill="none" stroke="#63b8ff" d="M71.11,-49.38C79.99,-49.38 89.41,-49.38 98.35,-49.38"/>
<polygon fill="#63b8ff" stroke="#63b8ff" points="71.35,-45.88 61.35,-49.38 71.35,-52.88 71.35,-45.88"/>
</g>
<!-- Node3 -->
<g id="node4" class="node">
<title>Node3</title>
<g id="a_node4"><a xlink:href="classupkie_1_1cpp_1_1interfaces_1_1Pi3HatInterface.html" target="_top" xlink:title="Interface to moteus controllers.">
<polygon fill="white" stroke="#666666" points="187.25,-20.75 95.5,-20.75 95.5,0 187.25,0 187.25,-20.75"/>
<text xml:space="preserve" text-anchor="middle" x="141.38" y="-7.25" font-family="Helvetica,sans-Serif" font-size="10.00">Pi3HatInterface</text>
</a>
</g>
</g>
<!-- Node0&#45;&gt;Node3 -->
<g id="edge3" class="edge">
<title>Node0&#45;&gt;Node3</title>
<path fill="none" stroke="#63b8ff" d="M70.43,-35.26C83.48,-30.62 97.76,-25.54 110,-21.18"/>
<polygon fill="#63b8ff" stroke="#63b8ff" points="69.51,-31.87 61.27,-38.52 71.86,-38.46 69.51,-31.87"/>
</g>
</g>
</svg>
