<?xml version="1.0" encoding="UTF-8" standalone="no"?>
<!DOCTYPE svg PUBLIC "-//W3C//DTD SVG 1.1//EN"
 "http://www.w3.org/Graphics/SVG/1.1/DTD/svg11.dtd">
<!-- Generated by graphviz version 13.1.2 (20250809.0930)
 -->
<!-- Title: Graphical Class Hierarchy Pages: 1 -->
<svg width="392pt" height="263pt"
 viewBox="0.00 0.00 392.00 263.00" xmlns="http://www.w3.org/2000/svg" xmlns:xlink="http://www.w3.org/1999/xlink">
<g id="graph0" class="graph" transform="scale(1 1) rotate(0) translate(4 258.75)">
<title>Graphical Class Hierarchy</title>
<!-- Node0 -->
<g id="node1" class="node">
<title>Node0</title>
<g id="a_node1"><a xlink:title=" ">
<polygon fill="#e0e0e0" stroke="#999999" points="64,-137.75 0,-137.75 0,-117 64,-117 64,-137.75"/>
<text xml:space="preserve" text-anchor="middle" x="32" y="-124.25" font-family="Helvetica,sans-Serif" font-size="10.00">Exception</text>
</a>
</g>
</g>
<!-- Node1 -->
<g id="node2" class="node">
<title>Node1</title>
<g id="a_node2"><a xlink:href="classupkie_1_1exceptions_1_1UpkieException.html" target="_top" xlink:title="Base class for exceptions raised by Upkie agents.">
<polygon fill="white" stroke="#666666" points="192.5,-137.75 100,-137.75 100,-117 192.5,-117 192.5,-137.75"/>
<text xml:space="preserve" text-anchor="middle" x="146.25" y="-124.25" font-family="Helvetica,sans-Serif" font-size="10.00">UpkieException</text>
</a>
</g>
</g>
<!-- Node0&#45;&gt;Node1 -->
<g id="edge1" class="edge">
<title>Node0&#45;&gt;Node1</title>
<path fill="none" stroke="#63b8ff" d="M75.56,-127.38C83.51,-127.38 91.85,-127.38 99.88,-127.38"/>
<polygon fill="#63b8ff" stroke="#63b8ff" points="75.78,-123.88 65.78,-127.38 75.78,-130.88 75.78,-123.88"/>
</g>
<!-- Node2 -->
<g id="node3" class="node">
<title>Node2</title>
<g id="a_node3"><a xlink:href="classupkie_1_1exceptions_1_1FallDetected.html" target="_top" xlink:title="Raised when a fall is detected.">
<polygon fill="white" stroke="#666666" points="344.62,-215.75 267.88,-215.75 267.88,-195 344.62,-195 344.62,-215.75"/>
<text xml:space="preserve" text-anchor="middle" x="306.25" y="-202.25" font-family="Helvetica,sans-Serif" font-size="10.00">FallDetected</text>
</a>
</g>
</g>
<!-- Node1&#45;&gt;Node2 -->
<g id="edge2" class="edge">
<title>Node1&#45;&gt;Node2</title>
<path fill="none" stroke="#63b8ff" d="M168.1,-145.54C183.77,-158.34 206.27,-174.98 228.5,-185.38 240.72,-191.09 254.84,-195.36 267.6,-198.46"/>
<polygon fill="#63b8ff" stroke="#63b8ff" points="170.37,-142.87 160.46,-139.13 165.87,-148.24 170.37,-142.87"/>
</g>
<!-- Node3 -->
<g id="node4" class="node">
<title>Node3</title>
<g id="a_node4"><a xlink:href="classupkie_1_1exceptions_1_1MissingOptionalDependency.html" target="_top" xlink:title="Raised when an optional feature lacks a corresponding optional dependency.">
<polygon fill="white" stroke="#666666" points="384,-176.75 228.5,-176.75 228.5,-156 384,-156 384,-176.75"/>
<text xml:space="preserve" text-anchor="middle" x="306.25" y="-163.25" font-family="Helvetica,sans-Serif" font-size="10.00">MissingOptionalDependency</text>
</a>
</g>
</g>
<!-- Node1&#45;&gt;Node3 -->
<g id="edge3" class="edge">
<title>Node1&#45;&gt;Node3</title>
<path fill="none" stroke="#63b8ff" d="M202.32,-140.97C221.59,-145.72 242.95,-151 261.2,-155.5"/>
<polygon fill="#63b8ff" stroke="#63b8ff" points="203.28,-137.6 192.73,-138.6 201.6,-144.4 203.28,-137.6"/>
</g>
<!-- Node4 -->
<g id="node5" class="node">
<title>Node4</title>
<g id="a_node5"><a xlink:href="classupkie_1_1exceptions_1_1ModelError.html" target="_top" xlink:title="Raised when something is wrong in the robot model.">
<polygon fill="white" stroke="#666666" points="340.88,-137.75 271.62,-137.75 271.62,-117 340.88,-117 340.88,-137.75"/>
<text xml:space="preserve" text-anchor="middle" x="306.25" y="-124.25" font-family="Helvetica,sans-Serif" font-size="10.00">ModelError</text>
</a>
</g>
</g>
<!-- Node1&#45;&gt;Node4 -->
<g id="edge4" class="edge">
<title>Node1&#45;&gt;Node4</title>
<path fill="none" stroke="#63b8ff" d="M204.39,-127.38C226.78,-127.38 251.72,-127.38 271.2,-127.38"/>
<polygon fill="#63b8ff" stroke="#63b8ff" points="204.46,-123.88 194.46,-127.38 204.46,-130.88 204.46,-123.88"/>
</g>
<!-- Node5 -->
<g id="node6" class="node">
<title>Node5</title>
<g id="a_node6"><a xlink:href="classupkie_1_1exceptions_1_1PerformanceIssue.html" target="_top" xlink:title="Raised when a performance issue is detected.">
<polygon fill="white" stroke="#666666" points="358.12,-98.75 254.38,-98.75 254.38,-78 358.12,-78 358.12,-98.75"/>
<text xml:space="preserve" text-anchor="middle" x="306.25" y="-85.25" font-family="Helvetica,sans-Serif" font-size="10.00">PerformanceIssue</text>
</a>
</g>
</g>
<!-- Node1&#45;&gt;Node5 -->
<g id="edge5" class="edge">
<title>Node1&#45;&gt;Node5</title>
<path fill="none" stroke="#63b8ff" d="M202.32,-113.78C221.59,-109.03 242.95,-103.75 261.2,-99.25"/>
<polygon fill="#63b8ff" stroke="#63b8ff" points="201.6,-110.35 192.73,-116.15 203.28,-117.15 201.6,-110.35"/>
</g>
<!-- Node6 -->
<g id="node7" class="node">
<title>Node6</title>
<g id="a_node7"><a xlink:href="classupkie_1_1exceptions_1_1SpineError.html" target="_top" xlink:title="Raised when the spine sets an error flag.">
<polygon fill="white" stroke="#666666" points="339.38,-254.75 273.12,-254.75 273.12,-234 339.38,-234 339.38,-254.75"/>
<text xml:space="preserve" text-anchor="middle" x="306.25" y="-241.25" font-family="Helvetica,sans-Serif" font-size="10.00">SpineError</text>
</a>
</g>
</g>
<!-- Node1&#45;&gt;Node6 -->
<g id="edge6" class="edge">
<title>Node1&#45;&gt;Node6</title>
<path fill="none" stroke="#63b8ff" d="M158.93,-147.74C172.71,-169.94 197.71,-204.89 228.5,-224.38 241.76,-232.77 258.43,-237.65 272.85,-240.49"/>
<polygon fill="#63b8ff" stroke="#63b8ff" points="162,-146.06 153.86,-139.29 156,-149.66 162,-146.06"/>
</g>
<!-- Node7 -->
<g id="node8" class="node">
<title>Node7</title>
<g id="a_node8"><a xlink:href="classupkie_1_1exceptions_1_1UpkieRuntimeError.html" target="_top" xlink:title="Runtime error, for instance an invalid call to a library function.">
<polygon fill="white" stroke="#666666" points="360.75,-59.75 251.75,-59.75 251.75,-39 360.75,-39 360.75,-59.75"/>
<text xml:space="preserve" text-anchor="middle" x="306.25" y="-46.25" font-family="Helvetica,sans-Serif" font-size="10.00">UpkieRuntimeError</text>
</a>
</g>
</g>
<!-- Node1&#45;&gt;Node7 -->
<g id="edge7" class="edge">
<title>Node1&#45;&gt;Node7</title>
<path fill="none" stroke="#63b8ff" d="M168.1,-109.21C183.77,-96.41 206.27,-79.77 228.5,-69.38 236.23,-65.76 244.72,-62.72 253.15,-60.19"/>
<polygon fill="#63b8ff" stroke="#63b8ff" points="165.87,-106.51 160.46,-115.62 170.37,-111.88 165.87,-106.51"/>
</g>
<!-- Node9 -->
<g id="node9" class="node">
<title>Node9</title>
<g id="a_node9"><a xlink:href="classupkie_1_1exceptions_1_1UpkieTimeoutError.html" target="_top" xlink:title="Raised when something times out, typically the spine not responding.">
<polygon fill="white" stroke="#666666" points="360.38,-20.75 252.12,-20.75 252.12,0 360.38,0 360.38,-20.75"/>
<text xml:space="preserve" text-anchor="middle" x="306.25" y="-7.25" font-family="Helvetica,sans-Serif" font-size="10.00">UpkieTimeoutError</text>
</a>
</g>
</g>
<!-- Node1&#45;&gt;Node9 -->
<g id="edge8" class="edge">
<title>Node1&#45;&gt;Node9</title>
<path fill="none" stroke="#63b8ff" d="M162.62,-107.76C183.77,-80.97 220.19,-35.63 228.5,-30.38 235.6,-25.88 243.67,-22.4 251.85,-19.69"/>
<polygon fill="#63b8ff" stroke="#63b8ff" points="159.97,-105.47 156.53,-115.49 165.47,-109.8 159.97,-105.47"/>
</g>
<!-- Node8 -->
<g id="node10" class="node">
<title>Node8</title>
<g id="a_node10"><a xlink:title=" ">
<polygon fill="#e0e0e0" stroke="#999999" points="186.5,-59.75 106,-59.75 106,-39 186.5,-39 186.5,-59.75"/>
<text xml:space="preserve" text-anchor="middle" x="146.25" y="-46.25" font-family="Helvetica,sans-Serif" font-size="10.00">RuntimeError</text>
</a>
</g>
</g>
<!-- Node8&#45;&gt;Node7 -->
<g id="edge9" class="edge">
<title>Node8&#45;&gt;Node7</title>
<path fill="none" stroke="#63b8ff" d="M198.13,-49.38C215.15,-49.38 234.17,-49.38 251.41,-49.38"/>
<polygon fill="#63b8ff" stroke="#63b8ff" points="198.23,-45.88 188.23,-49.38 198.23,-52.88 198.23,-45.88"/>
</g>
<!-- Node10 -->
<g id="node11" class="node">
<title>Node10</title>
<g id="a_node11"><a xlink:title=" ">
<polygon fill="#e0e0e0" stroke="#999999" points="186.12,-20.75 106.38,-20.75 106.38,0 186.12,0 186.12,-20.75"/>
<text xml:space="preserve" text-anchor="middle" x="146.25" y="-7.25" font-family="Helvetica,sans-Serif" font-size="10.00">TimeoutError</text>
</a>
</g>
</g>
<!-- Node10&#45;&gt;Node9 -->
<g id="edge10" class="edge">
<title>Node10&#45;&gt;Node9</title>
<path fill="none" stroke="#63b8ff" d="M197.34,-10.38C214.67,-10.38 234.15,-10.38 251.74,-10.38"/>
<polygon fill="#63b8ff" stroke="#63b8ff" points="197.82,-6.88 187.82,-10.38 197.82,-13.88 197.82,-6.88"/>
</g>
</g>
</svg>
