<?xml version="1.0" encoding="UTF-8" standalone="no"?>
<!DOCTYPE svg PUBLIC "-//W3C//DTD SVG 1.1//EN"
 "http://www.w3.org/Graphics/SVG/1.1/DTD/svg11.dtd">
<!-- Generated by graphviz version 13.1.2 (20250809.0930)
 -->
<!-- Title: Graphical Class Hierarchy Pages: 1 -->
<svg width="189pt" height="107pt"
 viewBox="0.00 0.00 189.00 107.00" xmlns="http://www.w3.org/2000/svg" xmlns:xlink="http://www.w3.org/1999/xlink">
<g id="graph0" class="graph" transform="scale(1 1) rotate(0) translate(4 102.75)">
<title>Graphical Class Hierarchy</title>
<!-- Node0 -->
<g id="node1" class="node">
<title>Node0</title>
<g id="a_node1"><a xlink:href="classupkie_1_1cpp_1_1sensors_1_1Sensor.html" target="_top" xlink:title="Base class for sensors.">
<polygon fill="white" stroke="#666666" points="49,-59.75 0,-59.75 0,-39 49,-39 49,-59.75"/>
<text xml:space="preserve" text-anchor="middle" x="24.5" y="-46.25" font-family="Helvetica,sans-Serif" font-size="10.00">Sensor</text>
</a>
</g>
</g>
<!-- Node1 -->
<g id="node2" class="node">
<title>Node1</title>
<g id="a_node2"><a xlink:href="classupkie_1_1cpp_1_1sensors_1_1CpuTemperature.html" target="_top" xlink:title="Sensor for CPU temperature readings.">
<polygon fill="white" stroke="#666666" points="181.25,-98.75 85,-98.75 85,-78 181.25,-78 181.25,-98.75"/>
<text xml:space="preserve" text-anchor="middle" x="133.12" y="-85.25" font-family="Helvetica,sans-Serif" font-size="10.00">CpuTemperature</text>
</a>
</g>
</g>
<!-- Node0&#45;&gt;Node1 -->
<g id="edge1" class="edge">
<title>Node0&#45;&gt;Node1</title>
<path fill="none" stroke="#63b8ff" d="M59.95,-61.98C73.69,-67 89.35,-72.73 102.57,-77.56"/>
<polygon fill="#63b8ff" stroke="#63b8ff" points="61.44,-58.8 50.85,-58.65 59.04,-65.37 61.44,-58.8"/>
</g>
<!-- Node2 -->
<g id="node3" class="node">
<title>Node2</title>
<g id="a_node3"><a xlink:href="classupkie_1_1cpp_1_1sensors_1_1Joystick.html" target="_top" xlink:title="Sensor for a joystick controller.">
<polygon fill="white" stroke="#666666" points="160.25,-59.75 106,-59.75 106,-39 160.25,-39 160.25,-59.75"/>
<text xml:space="preserve" text-anchor="middle" x="133.12" y="-46.25" font-family="Helvetica,sans-Serif" font-size="10.00">Joystick</text>
</a>
</g>
</g>
<!-- Node0&#45;&gt;Node2 -->
<g id="edge2" class="edge">
<title>Node0&#45;&gt;Node2</title>
<path fill="none" stroke="#63b8ff" d="M60.64,-49.38C75.31,-49.38 92.06,-49.38 105.66,-49.38"/>
<polygon fill="#63b8ff" stroke="#63b8ff" points="60.94,-45.88 50.94,-49.38 60.94,-52.88 60.94,-45.88"/>
</g>
<!-- Node3 -->
<g id="node4" class="node">
<title>Node3</title>
<g id="a_node4"><a xlink:href="classupkie_1_1cpp_1_1sensors_1_1Keyboard.html" target="_top" xlink:title="Sensor for reading Keyboard inputs.">
<polygon fill="white" stroke="#666666" points="164,-20.75 102.25,-20.75 102.25,0 164,0 164,-20.75"/>
<text xml:space="preserve" text-anchor="middle" x="133.12" y="-7.25" font-family="Helvetica,sans-Serif" font-size="10.00">Keyboard</text>
</a>
</g>
</g>
<!-- Node0&#45;&gt;Node3 -->
<g id="edge3" class="edge">
<title>Node0&#45;&gt;Node3</title>
<path fill="none" stroke="#63b8ff" d="M59.95,-36.77C73.69,-31.75 89.35,-26.02 102.57,-21.19"/>
<polygon fill="#63b8ff" stroke="#63b8ff" points="59.04,-33.38 50.85,-40.1 61.44,-39.95 59.04,-33.38"/>
</g>
</g>
</svg>
