<?xml version="1.0" encoding="UTF-8" standalone="no"?>
<!DOCTYPE svg PUBLIC "-//W3C//DTD SVG 1.1//EN"
 "http://www.w3.org/Graphics/SVG/1.1/DTD/svg11.dtd">
<!-- Generated by graphviz version 14.1.2 (20260126.1125)
 -->
<!-- Title: Graphical Class Hierarchy Pages: 1 -->
<svg width="228pt" height="150pt"
 viewBox="0.00 0.00 228.00 150.00" xmlns="http://www.w3.org/2000/svg" xmlns:xlink="http://www.w3.org/1999/xlink">
<g id="graph0" class="graph" transform="scale(1 1) rotate(0) translate(4 145.75)">
<title>Graphical Class Hierarchy</title>
<polygon fill="white" stroke="none" points="-4,4 -4,-145.75 224.25,-145.75 224.25,4 -4,4"/>
<!-- Node0 -->
<g id="node1" class="node">
<title>Node0</title>
<g id="a_node1"><a xlink:href="classupkie_1_1cpp_1_1observers_1_1Observer.html" target="_top" xlink:title="Base class for observers.">
<polygon fill="white" stroke="black" points="0,-60.5 0,-81.25 60.25,-81.25 60.25,-60.5 0,-60.5"/>
<text xml:space="preserve" text-anchor="middle" x="30.12" y="-67.75" font-family="Helvetica,sans-Serif" font-size="10.00">Observer</text>
</a>
</g>
</g>
<!-- Node1 -->
<g id="node2" class="node">
<title>Node1</title>
<g id="a_node2"><a xlink:href="classupkie_1_1cpp_1_1observers_1_1BaseOrientation.html" target="_top" xlink:title="Observe the orientation of the base frame relative to the world frame.">
<polygon fill="white" stroke="black" points="110.88,-120.5 110.88,-141.25 205.62,-141.25 205.62,-120.5 110.88,-120.5"/>
<text xml:space="preserve" text-anchor="middle" x="158.25" y="-127.75" font-family="Helvetica,sans-Serif" font-size="10.00">BaseOrientation</text>
</a>
</g>
</g>
<!-- Node0&#45;&gt;Node1 -->
<g id="edge1" class="edge">
<title>Node0&#45;&gt;Node1</title>
<path fill="none" stroke="midnightblue" d="M55.6,-87.79C67.5,-95.52 82.24,-104.38 96.25,-110.88 103.63,-114.29 111.76,-117.39 119.62,-120.07"/>
<polygon fill="midnightblue" stroke="midnightblue" points="57.87,-85.1 47.6,-82.48 53.99,-90.93 57.87,-85.1"/>
</g>
<!-- Node2 -->
<g id="node3" class="node">
<title>Node2</title>
<g id="a_node3"><a xlink:href="classupkie_1_1cpp_1_1observers_1_1FloorContact.html" target="_top" xlink:title="Observe contact between the wheels and the floor.">
<polygon fill="white" stroke="black" points="119.12,-80.5 119.12,-101.25 197.38,-101.25 197.38,-80.5 119.12,-80.5"/>
<text xml:space="preserve" text-anchor="middle" x="158.25" y="-87.75" font-family="Helvetica,sans-Serif" font-size="10.00">FloorContact</text>
</a>
</g>
</g>
<!-- Node0&#45;&gt;Node2 -->
<g id="edge2" class="edge">
<title>Node0&#45;&gt;Node2</title>
<path fill="none" stroke="midnightblue" d="M71.78,-77.32C86.85,-79.71 103.9,-82.41 118.78,-84.77"/>
<polygon fill="midnightblue" stroke="midnightblue" points="72.62,-73.91 62.19,-75.8 71.52,-80.82 72.62,-73.91"/>
</g>
<!-- Node3 -->
<g id="node4" class="node">
<title>Node3</title>
<g id="a_node4"><a xlink:href="classupkie_1_1cpp_1_1observers_1_1HistoryObserver.html" target="_top" xlink:title="Report high&#45;frequency history vectors to lower&#45;frequency agents.">
<polygon fill="white" stroke="black" points="96.25,-40.5 96.25,-61.25 220.25,-61.25 220.25,-40.5 96.25,-40.5"/>
<text xml:space="preserve" text-anchor="middle" x="158.25" y="-47.75" font-family="Helvetica,sans-Serif" font-size="10.00">HistoryObserver&lt; T &gt;</text>
</a>
</g>
</g>
<!-- Node0&#45;&gt;Node3 -->
<g id="edge3" class="edge">
<title>Node0&#45;&gt;Node3</title>
<path fill="none" stroke="midnightblue" d="M71.86,-64.42C79.52,-63.2 87.69,-61.91 95.81,-60.62"/>
<polygon fill="midnightblue" stroke="midnightblue" points="71.52,-60.93 62.19,-65.95 72.62,-67.84 71.52,-60.93"/>
</g>
<!-- Node4 -->
<g id="node5" class="node">
<title>Node4</title>
<g id="a_node5"><a xlink:href="classupkie_1_1cpp_1_1observers_1_1WheelOdometry.html" target="_top" xlink:title="Observe the relative motion of the floating base with respect to the floor.">
<polygon fill="white" stroke="black" points="110.5,-0.5 110.5,-21.25 206,-21.25 206,-0.5 110.5,-0.5"/>
<text xml:space="preserve" text-anchor="middle" x="158.25" y="-7.75" font-family="Helvetica,sans-Serif" font-size="10.00">WheelOdometry</text>
</a>
</g>
</g>
<!-- Node0&#45;&gt;Node4 -->
<g id="edge4" class="edge">
<title>Node0&#45;&gt;Node4</title>
<path fill="none" stroke="midnightblue" d="M55.6,-53.96C67.5,-46.23 82.24,-37.37 96.25,-30.88 103.63,-27.46 111.76,-24.36 119.62,-21.68"/>
<polygon fill="midnightblue" stroke="midnightblue" points="53.99,-50.82 47.6,-59.27 57.87,-56.65 53.99,-50.82"/>
</g>
</g>
</svg>
