<?xml version="1.0" encoding="UTF-8" standalone="no"?>
<!DOCTYPE svg PUBLIC "-//W3C//DTD SVG 1.1//EN"
 "http://www.w3.org/Graphics/SVG/1.1/DTD/svg11.dtd">
<!-- Generated by graphviz version 13.1.2 (20250809.0930)
 -->
<!-- Title: Graphical Class Hierarchy Pages: 1 -->
<svg width="296pt" height="68pt"
 viewBox="0.00 0.00 296.00 68.00" xmlns="http://www.w3.org/2000/svg" xmlns:xlink="http://www.w3.org/1999/xlink">
<g id="graph0" class="graph" transform="scale(1 1) rotate(0) translate(4 63.75)">
<title>Graphical Class Hierarchy</title>
<!-- Node0 -->
<g id="node1" class="node">
<title>Node0</title>
<g id="a_node1"><a xlink:title=" ">
<polygon fill="#e0e0e0" stroke="#999999" points="116.5,-39.75 0,-39.75 0,-19 116.5,-19 116.5,-39.75"/>
<text xml:space="preserve" text-anchor="middle" x="58.25" y="-26.25" font-family="Helvetica,sans-Serif" font-size="10.00">ObservationWrapper</text>
</a>
</g>
</g>
<!-- Node1 -->
<g id="node2" class="node">
<title>Node1</title>
<g id="a_node2"><a xlink:href="classupkie_1_1envs_1_1wrappers_1_1add__action__to__observation_1_1AddActionToObservation.html" target="_top" xlink:title="Append last action vector to the observation vector.">
<polygon fill="white" stroke="#666666" points="287.75,-59.75 152.5,-59.75 152.5,-39 287.75,-39 287.75,-59.75"/>
<text xml:space="preserve" text-anchor="middle" x="220.12" y="-46.25" font-family="Helvetica,sans-Serif" font-size="10.00">AddActionToObservation</text>
</a>
</g>
</g>
<!-- Node0&#45;&gt;Node1 -->
<g id="edge1" class="edge">
<title>Node0&#45;&gt;Node1</title>
<path fill="none" stroke="#63b8ff" d="M128.14,-37.99C136.13,-38.99 144.28,-40.01 152.25,-41.01"/>
<polygon fill="#63b8ff" stroke="#63b8ff" points="128.83,-34.55 118.47,-36.78 127.96,-41.5 128.83,-34.55"/>
</g>
<!-- Node2 -->
<g id="node3" class="node">
<title>Node2</title>
<g id="a_node3"><a xlink:href="classupkie_1_1envs_1_1wrappers_1_1noisify__observation_1_1NoisifyObservation.html" target="_top" xlink:title="Add noise to the observation of an environment.">
<polygon fill="white" stroke="#666666" points="274.62,-20.75 165.62,-20.75 165.62,0 274.62,0 274.62,-20.75"/>
<text xml:space="preserve" text-anchor="middle" x="220.12" y="-7.25" font-family="Helvetica,sans-Serif" font-size="10.00">NoisifyObservation</text>
</a>
</g>
</g>
<!-- Node0&#45;&gt;Node2 -->
<g id="edge2" class="edge">
<title>Node0&#45;&gt;Node2</title>
<path fill="none" stroke="#63b8ff" d="M128.21,-21.18C140.59,-19.71 153.34,-18.19 165.22,-16.78"/>
<polygon fill="#63b8ff" stroke="#63b8ff" points="127.99,-17.68 118.47,-22.34 128.81,-24.63 127.99,-17.68"/>
</g>
</g>
</svg>
