<?xml version="1.0" encoding="UTF-8" standalone="no"?>
<!DOCTYPE svg PUBLIC "-//W3C//DTD SVG 1.1//EN"
 "http://www.w3.org/Graphics/SVG/1.1/DTD/svg11.dtd">
<!-- Generated by graphviz version 14.1.2 (20260126.1125)
 -->
<!-- Title: Graphical Class Hierarchy Pages: 1 -->
<svg width="296pt" height="70pt"
 viewBox="0.00 0.00 296.00 70.00" xmlns="http://www.w3.org/2000/svg" xmlns:xlink="http://www.w3.org/1999/xlink">
<g id="graph0" class="graph" transform="scale(1 1) rotate(0) translate(4 65.75)">
<title>Graphical Class Hierarchy</title>
<polygon fill="white" stroke="none" points="-4,4 -4,-65.75 291.75,-65.75 291.75,4 -4,4"/>
<!-- Node60 -->
<g id="node1" class="node">
<title>Node60</title>
<g id="a_node1"><a xlink:title=" ">
<polygon fill="white" stroke="#bfbfbf" points="0,-20.5 0,-41.25 116.5,-41.25 116.5,-20.5 0,-20.5"/>
<text xml:space="preserve" text-anchor="middle" x="58.25" y="-27.75" font-family="Helvetica,sans-Serif" font-size="10.00">ObservationWrapper</text>
</a>
</g>
</g>
<!-- Node0 -->
<g id="node2" class="node">
<title>Node0</title>
<g id="a_node2"><a xlink:href="classupkie_1_1envs_1_1wrappers_1_1add__action__to__observation_1_1AddActionToObservation.html" target="_top" xlink:title="Append last action vector to the observation vector.">
<polygon fill="white" stroke="black" points="152.5,-40.5 152.5,-61.25 287.75,-61.25 287.75,-40.5 152.5,-40.5"/>
<text xml:space="preserve" text-anchor="middle" x="220.12" y="-47.75" font-family="Helvetica,sans-Serif" font-size="10.00">AddActionToObservation</text>
</a>
</g>
</g>
<!-- Node60&#45;&gt;Node0 -->
<g id="edge1" class="edge">
<title>Node60&#45;&gt;Node0</title>
<path fill="none" stroke="midnightblue" d="M128.14,-39.49C136.13,-40.49 144.28,-41.51 152.25,-42.51"/>
<polygon fill="midnightblue" stroke="midnightblue" points="128.83,-36.05 118.47,-38.28 127.96,-43 128.83,-36.05"/>
</g>
<!-- Node62 -->
<g id="node3" class="node">
<title>Node62</title>
<g id="a_node3"><a xlink:href="classupkie_1_1envs_1_1wrappers_1_1noisify__observation_1_1NoisifyObservation.html" target="_top" xlink:title="Add noise to the observation of an environment.">
<polygon fill="white" stroke="black" points="165.62,-0.5 165.62,-21.25 274.62,-21.25 274.62,-0.5 165.62,-0.5"/>
<text xml:space="preserve" text-anchor="middle" x="220.12" y="-7.75" font-family="Helvetica,sans-Serif" font-size="10.00">NoisifyObservation</text>
</a>
</g>
</g>
<!-- Node60&#45;&gt;Node62 -->
<g id="edge2" class="edge">
<title>Node60&#45;&gt;Node62</title>
<path fill="none" stroke="midnightblue" d="M128.21,-22.25C140.59,-20.7 153.34,-19.1 165.22,-17.62"/>
<polygon fill="midnightblue" stroke="midnightblue" points="127.96,-18.75 118.47,-23.47 128.83,-25.7 127.96,-18.75"/>
</g>
</g>
</svg>
