<?xml version="1.0" encoding="UTF-8" standalone="no"?>
<!DOCTYPE svg PUBLIC "-//W3C//DTD SVG 1.1//EN"
 "http://www.w3.org/Graphics/SVG/1.1/DTD/svg11.dtd">
<!-- Generated by graphviz version 14.1.2 (20260126.1125)
 -->
<!-- Title: Graphical Class Hierarchy Pages: 1 -->
<svg width="189pt" height="110pt"
 viewBox="0.00 0.00 189.00 110.00" xmlns="http://www.w3.org/2000/svg" xmlns:xlink="http://www.w3.org/1999/xlink">
<g id="graph0" class="graph" transform="scale(1 1) rotate(0) translate(4 105.75)">
<title>Graphical Class Hierarchy</title>
<polygon fill="white" stroke="none" points="-4,4 -4,-105.75 185.25,-105.75 185.25,4 -4,4"/>
<!-- Node0 -->
<g id="node1" class="node">
<title>Node0</title>
<g id="a_node1"><a xlink:href="classupkie_1_1cpp_1_1sensors_1_1Sensor.html" target="_top" xlink:title="Base class for sensors.">
<polygon fill="white" stroke="black" points="0,-40.5 0,-61.25 49,-61.25 49,-40.5 0,-40.5"/>
<text xml:space="preserve" text-anchor="middle" x="24.5" y="-47.75" font-family="Helvetica,sans-Serif" font-size="10.00">Sensor</text>
</a>
</g>
</g>
<!-- Node1 -->
<g id="node2" class="node">
<title>Node1</title>
<g id="a_node2"><a xlink:href="classupkie_1_1cpp_1_1sensors_1_1CpuTemperature.html" target="_top" xlink:title="Sensor for CPU temperature readings.">
<polygon fill="white" stroke="black" points="85,-80.5 85,-101.25 181.25,-101.25 181.25,-80.5 85,-80.5"/>
<text xml:space="preserve" text-anchor="middle" x="133.12" y="-87.75" font-family="Helvetica,sans-Serif" font-size="10.00">CpuTemperature</text>
</a>
</g>
</g>
<!-- Node0&#45;&gt;Node1 -->
<g id="edge1" class="edge">
<title>Node0&#45;&gt;Node1</title>
<path fill="none" stroke="midnightblue" d="M60.13,-63.86C74.1,-69.11 90.03,-75.08 103.35,-80.08"/>
<polygon fill="midnightblue" stroke="midnightblue" points="61.44,-60.62 50.85,-60.38 58.98,-67.17 61.44,-60.62"/>
</g>
<!-- Node2 -->
<g id="node3" class="node">
<title>Node2</title>
<g id="a_node3"><a xlink:href="classupkie_1_1cpp_1_1sensors_1_1Joystick.html" target="_top" xlink:title="Sensor for a joystick controller.">
<polygon fill="white" stroke="black" points="106,-40.5 106,-61.25 160.25,-61.25 160.25,-40.5 106,-40.5"/>
<text xml:space="preserve" text-anchor="middle" x="133.12" y="-47.75" font-family="Helvetica,sans-Serif" font-size="10.00">Joystick</text>
</a>
</g>
</g>
<!-- Node0&#45;&gt;Node2 -->
<g id="edge2" class="edge">
<title>Node0&#45;&gt;Node2</title>
<path fill="none" stroke="midnightblue" d="M60.64,-50.88C75.31,-50.88 92.06,-50.88 105.66,-50.88"/>
<polygon fill="midnightblue" stroke="midnightblue" points="60.94,-47.38 50.94,-50.88 60.94,-54.38 60.94,-47.38"/>
</g>
<!-- Node3 -->
<g id="node4" class="node">
<title>Node3</title>
<g id="a_node4"><a xlink:href="classupkie_1_1cpp_1_1sensors_1_1Keyboard.html" target="_top" xlink:title="Sensor for reading Keyboard inputs.">
<polygon fill="white" stroke="black" points="102.25,-0.5 102.25,-21.25 164,-21.25 164,-0.5 102.25,-0.5"/>
<text xml:space="preserve" text-anchor="middle" x="133.12" y="-7.75" font-family="Helvetica,sans-Serif" font-size="10.00">Keyboard</text>
</a>
</g>
</g>
<!-- Node0&#45;&gt;Node3 -->
<g id="edge3" class="edge">
<title>Node0&#45;&gt;Node3</title>
<path fill="none" stroke="midnightblue" d="M60.13,-37.89C74.1,-32.64 90.03,-26.67 103.35,-21.67"/>
<polygon fill="midnightblue" stroke="midnightblue" points="58.98,-34.58 50.85,-41.37 61.44,-41.13 58.98,-34.58"/>
</g>
</g>
</svg>
