<?xml version="1.0" encoding="UTF-8" standalone="no"?>
<!DOCTYPE svg PUBLIC "-//W3C//DTD SVG 1.1//EN"
 "http://www.w3.org/Graphics/SVG/1.1/DTD/svg11.dtd">
<!-- Generated by graphviz version 13.1.2 (20250809.0930)
 -->
<!-- Title: Graphical Class Hierarchy Pages: 1 -->
<svg width="228pt" height="146pt"
 viewBox="0.00 0.00 228.00 146.00" xmlns="http://www.w3.org/2000/svg" xmlns:xlink="http://www.w3.org/1999/xlink">
<g id="graph0" class="graph" transform="scale(1 1) rotate(0) translate(4 141.75)">
<title>Graphical Class Hierarchy</title>
<!-- Node0 -->
<g id="node1" class="node">
<title>Node0</title>
<g id="a_node1"><a xlink:href="classupkie_1_1cpp_1_1observers_1_1Observer.html" target="_top" xlink:title="Base class for observers.">
<polygon fill="white" stroke="#666666" points="60.25,-78.75 0,-78.75 0,-58 60.25,-58 60.25,-78.75"/>
<text xml:space="preserve" text-anchor="middle" x="30.12" y="-65.25" font-family="Helvetica,sans-Serif" font-size="10.00">Observer</text>
</a>
</g>
</g>
<!-- Node1 -->
<g id="node2" class="node">
<title>Node1</title>
<g id="a_node2"><a xlink:href="classupkie_1_1cpp_1_1observers_1_1BaseOrientation.html" target="_top" xlink:title="Observe the orientation of the base frame relative to the world frame.">
<polygon fill="white" stroke="#666666" points="205.62,-137.75 110.88,-137.75 110.88,-117 205.62,-117 205.62,-137.75"/>
<text xml:space="preserve" text-anchor="middle" x="158.25" y="-124.25" font-family="Helvetica,sans-Serif" font-size="10.00">BaseOrientation</text>
</a>
</g>
</g>
<!-- Node0&#45;&gt;Node1 -->
<g id="edge1" class="edge">
<title>Node0&#45;&gt;Node1</title>
<path fill="none" stroke="#63b8ff" d="M56.49,-85.36C68.25,-92.77 82.62,-101.15 96.25,-107.38 103.65,-110.75 111.79,-113.83 119.65,-116.51"/>
<polygon fill="#63b8ff" stroke="#63b8ff" points="58.48,-82.48 48.18,-80.01 54.69,-88.37 58.48,-82.48"/>
</g>
<!-- Node2 -->
<g id="node3" class="node">
<title>Node2</title>
<g id="a_node3"><a xlink:href="classupkie_1_1cpp_1_1observers_1_1FloorContact.html" target="_top" xlink:title="Observe contact between the wheels and the floor.">
<polygon fill="white" stroke="#666666" points="197.38,-98.75 119.12,-98.75 119.12,-78 197.38,-78 197.38,-98.75"/>
<text xml:space="preserve" text-anchor="middle" x="158.25" y="-85.25" font-family="Helvetica,sans-Serif" font-size="10.00">FloorContact</text>
</a>
</g>
</g>
<!-- Node0&#45;&gt;Node2 -->
<g id="edge2" class="edge">
<title>Node0&#45;&gt;Node2</title>
<path fill="none" stroke="#63b8ff" d="M71.78,-74.82C86.85,-77.21 103.9,-79.91 118.78,-82.27"/>
<polygon fill="#63b8ff" stroke="#63b8ff" points="72.62,-71.41 62.19,-73.3 71.52,-78.32 72.62,-71.41"/>
</g>
<!-- Node3 -->
<g id="node4" class="node">
<title>Node3</title>
<g id="a_node4"><a xlink:href="classupkie_1_1cpp_1_1observers_1_1HistoryObserver.html" target="_top" xlink:title="Report high&#45;frequency history vectors to lower&#45;frequency agents.">
<polygon fill="white" stroke="#666666" points="220.25,-59.75 96.25,-59.75 96.25,-39 220.25,-39 220.25,-59.75"/>
<text xml:space="preserve" text-anchor="middle" x="158.25" y="-46.25" font-family="Helvetica,sans-Serif" font-size="10.00">HistoryObserver&lt; T &gt;</text>
</a>
</g>
</g>
<!-- Node0&#45;&gt;Node3 -->
<g id="edge3" class="edge">
<title>Node0&#45;&gt;Node3</title>
<path fill="none" stroke="#63b8ff" d="M71.86,-62.24C79.52,-61.08 87.69,-59.85 95.81,-58.63"/>
<polygon fill="#63b8ff" stroke="#63b8ff" points="71.56,-58.74 62.19,-63.69 72.6,-65.67 71.56,-58.74"/>
</g>
<!-- Node4 -->
<g id="node5" class="node">
<title>Node4</title>
<g id="a_node5"><a xlink:href="classupkie_1_1cpp_1_1observers_1_1WheelOdometry.html" target="_top" xlink:title="Observe the relative motion of the floating base with respect to the floor.">
<polygon fill="white" stroke="#666666" points="206,-20.75 110.5,-20.75 110.5,0 206,0 206,-20.75"/>
<text xml:space="preserve" text-anchor="middle" x="158.25" y="-7.25" font-family="Helvetica,sans-Serif" font-size="10.00">WheelOdometry</text>
</a>
</g>
</g>
<!-- Node0&#45;&gt;Node4 -->
<g id="edge4" class="edge">
<title>Node0&#45;&gt;Node4</title>
<path fill="none" stroke="#63b8ff" d="M57.02,-51.57C68.7,-44.43 82.86,-36.39 96.25,-30.38 103.77,-26.99 112.04,-23.9 120,-21.2"/>
<polygon fill="#63b8ff" stroke="#63b8ff" points="55.39,-48.46 48.76,-56.73 59.09,-54.4 55.39,-48.46"/>
</g>
</g>
</svg>
