<?xml version="1.0" encoding="UTF-8" standalone="no"?>
<!DOCTYPE svg PUBLIC "-//W3C//DTD SVG 1.1//EN"
 "http://www.w3.org/Graphics/SVG/1.1/DTD/svg11.dtd">
<!-- Generated by graphviz version 14.1.2 (20260126.1125)
 -->
<!-- Title: Graphical Class Hierarchy Pages: 1 -->
<svg width="195pt" height="110pt"
 viewBox="0.00 0.00 195.00 110.00" xmlns="http://www.w3.org/2000/svg" xmlns:xlink="http://www.w3.org/1999/xlink">
<g id="graph0" class="graph" transform="scale(1 1) rotate(0) translate(4 105.75)">
<title>Graphical Class Hierarchy</title>
<polygon fill="white" stroke="none" points="-4,4 -4,-105.75 191.25,-105.75 191.25,4 -4,4"/>
<!-- Node0 -->
<g id="node1" class="node">
<title>Node0</title>
<g id="a_node1"><a xlink:href="classupkie_1_1cpp_1_1interfaces_1_1Interface.html" target="_top" xlink:title="Base class for actuation interfaces.">
<polygon fill="white" stroke="black" points="0,-40.5 0,-61.25 59.5,-61.25 59.5,-40.5 0,-40.5"/>
<text xml:space="preserve" text-anchor="middle" x="29.75" y="-47.75" font-family="Helvetica,sans-Serif" font-size="10.00">Interface</text>
</a>
</g>
</g>
<!-- Node1 -->
<g id="node2" class="node">
<title>Node1</title>
<g id="a_node2"><a xlink:href="classupkie_1_1cpp_1_1interfaces_1_1BulletInterface.html" target="_top" xlink:title="Actuation interface for the Bullet simulator.">
<polygon fill="white" stroke="black" points="97.38,-80.5 97.38,-101.25 185.38,-101.25 185.38,-80.5 97.38,-80.5"/>
<text xml:space="preserve" text-anchor="middle" x="141.38" y="-87.75" font-family="Helvetica,sans-Serif" font-size="10.00">BulletInterface</text>
</a>
</g>
</g>
<!-- Node0&#45;&gt;Node1 -->
<g id="edge1" class="edge">
<title>Node0&#45;&gt;Node1</title>
<path fill="none" stroke="midnightblue" d="M70.61,-65.42C83.88,-70.26 98.42,-75.56 110.77,-80.07"/>
<polygon fill="midnightblue" stroke="midnightblue" points="71.86,-62.15 61.26,-62.01 69.46,-68.72 71.86,-62.15"/>
</g>
<!-- Node2 -->
<g id="node3" class="node">
<title>Node2</title>
<g id="a_node3"><a xlink:href="classupkie_1_1cpp_1_1interfaces_1_1MockInterface.html" target="_top" xlink:title="Interface whose internal state perfectly tracks commands.">
<polygon fill="white" stroke="black" points="98.5,-40.5 98.5,-61.25 184.25,-61.25 184.25,-40.5 98.5,-40.5"/>
<text xml:space="preserve" text-anchor="middle" x="141.38" y="-47.75" font-family="Helvetica,sans-Serif" font-size="10.00">MockInterface</text>
</a>
</g>
</g>
<!-- Node0&#45;&gt;Node2 -->
<g id="edge2" class="edge">
<title>Node0&#45;&gt;Node2</title>
<path fill="none" stroke="midnightblue" d="M71.11,-50.88C79.99,-50.88 89.41,-50.88 98.35,-50.88"/>
<polygon fill="midnightblue" stroke="midnightblue" points="71.35,-47.38 61.35,-50.88 71.35,-54.38 71.35,-47.38"/>
</g>
<!-- Node3 -->
<g id="node4" class="node">
<title>Node3</title>
<g id="a_node4"><a xlink:href="classupkie_1_1cpp_1_1interfaces_1_1Pi3HatInterface.html" target="_top" xlink:title="Interface to moteus controllers.">
<polygon fill="white" stroke="black" points="95.5,-0.5 95.5,-21.25 187.25,-21.25 187.25,-0.5 95.5,-0.5"/>
<text xml:space="preserve" text-anchor="middle" x="141.38" y="-7.75" font-family="Helvetica,sans-Serif" font-size="10.00">Pi3HatInterface</text>
</a>
</g>
</g>
<!-- Node0&#45;&gt;Node3 -->
<g id="edge3" class="edge">
<title>Node0&#45;&gt;Node3</title>
<path fill="none" stroke="midnightblue" d="M70.61,-36.33C83.88,-31.49 98.42,-26.19 110.77,-21.68"/>
<polygon fill="midnightblue" stroke="midnightblue" points="69.46,-33.03 61.26,-39.74 71.86,-39.6 69.46,-33.03"/>
</g>
</g>
</svg>
